<svg xmlns="http://www.w3.org/2000/svg" width="914.559" height="108.797" viewBox="0 0 914.559 108.797">
  <path id="パス_6825" data-name="パス 6825" d="M-421.567-11.7a3.826,3.826,0,0,1-1.921,3.493c-2.1.7-2.27,3.318-4.89,4.366-1.4.7-3.318,3.143-4.54,3.143-1.4,0-2.62,2.445-4.366,2.969-1.921.349-4.017,2.445-5.763,2.445-1.222,0-1.572-1.4-1.572-2.27,0-4.017,4.017-6.287,5.239-9.78.873-2.62,3.667-4.366,6.112-5.588,1.746-1.048,4.54-3.143,6.636-3.143C-425.06-16.066-421.567-13.272-421.567-11.7Zm59.9-6.461c0,1.048-1.222,2.794-1.572,3.842-2.62,5.938-7.509,5.414-10.653,9.43-1.572,2.1-2.969,1.921-5.064,3.143-3.842,2.62-6.985,2.794-11.526,2.794-4.191,0-10.129-4.191-13.971-6.287a18.578,18.578,0,0,1-5.414-5.064l-.524-1.048a1.05,1.05,0,0,1-.175-.7.642.642,0,0,1,.175-.524c1.222-2.445,6.461-6.636,7.859-8.382,1.746-2.445,4.366-3.318,6.636-6.461a1.527,1.527,0,0,1,1.572-.873,9.509,9.509,0,0,1,5.239,2.27,17.3,17.3,0,0,0,9.43,3.842,26.453,26.453,0,0,1,7.335,1.746,27.39,27.39,0,0,0,6.461.873C-364.461-19.559-361.667-19.559-361.667-18.162Zm5.239-26.894c0,1.921-.7,3.842-.7,5.763,0,1.222.175,3.493.175,5.588s-.175,4.191-.7,5.064c-.524.7-.349,1.921-1.222,2.445a5.158,5.158,0,0,1-2.27.349c-1.222,0-2.445-.524-3.493-.524-1.572,0-2.794.873-4.366.873a7.564,7.564,0,0,1-.873-.175c-2.1-1.048-4.89-.524-7.335-1.222-2.794-1.048-10.478-4.54-10.478-8.033a2.872,2.872,0,0,1,1.4-2.1c2.1-1.921,2.794-4.89,5.064-6.985,2.1-1.746,3.667-4.366,5.938-5.938,2.1-1.222,6.287-5.064,7.509-7.16.873-1.4,3.667-5.938,5.239-5.938,1.222,0,5.239,8.557,5.239,10.129C-357.3-50.295-356.428-47.85-356.428-45.056ZM-366.906-68.98c0,.873-2.445,2.794-2.969,3.493a81.055,81.055,0,0,1-6.287,6.985A37.771,37.771,0,0,0-383.5-50.12a39.735,39.735,0,0,1-5.064,5.938,3.714,3.714,0,0,1-2.62,1.222c-3.493,0-2.969-4.715-3.667-6.985a13.294,13.294,0,0,1-.524-3.667c0-7.16,4.017-11,8.382-15.717,1.746-1.921,6.636-3.143,9.256-3.143h4.191C-371.8-72.473-366.906-71.076-366.906-68.98Zm34.752,45.4a3.032,3.032,0,0,0-2.969-3.318c-2.969,0-6.287,1.746-9.954,1.746-1.048,0-4.191-.175-5.239-.7-.524-.175-.524-.7-.524-1.048,0-2.62,1.222-5.064,1.222-7.684v-1.572a19.7,19.7,0,0,1,.873-7.16,7.087,7.087,0,0,0,.7-3.318c0-2.27-2.1-10.3-2.969-12.574-1.222-2.794-1.048-6.112-2.1-8.906-.349-1.048-1.572-2.794-1.572-3.842,0-.349,3.318-6.112,4.191-6.636,2.62-1.572,5.414-5.414,7.509-7.509,3.143-3.318,7.335-.175,8.033-3.842,0-.7.175-1.572.175-2.445,0-3.143-1.572-5.938-5.064-5.938-4.191,0-7.859,8.382-11.177,11-3.493,2.62-3.842,6.287-6.287,8.382-.873.7-2.62,2.62-3.667,2.62a2.425,2.425,0,0,1-1.746-.873c-2.27-1.921-6.461-2.62-9.43-2.62-3.667,0-9.954,1.746-13.447,3.318-4.89,2.1-6.287,5.414-9.256,6.811-2.62,1.4-2.445,3.318-3.493,5.763-2.1,4.191-3.842,6.811-3.842,11.7a35.818,35.818,0,0,0,1.746,10.653c.7,1.921,1.746,5.064,1.746,6.985,0,2.62-5.763,8.208-7.335,10.129-2.1,2.27-5.414,4.017-7.16,6.636a2.891,2.891,0,0,1-2.27,1.746c-2.969,0-4.191-4.191-7.335-4.191-1.222,0-2.27.349-3.493.349-3.493,0-4.89,1.921-8.033,2.62s-5.763,5.064-8.732,6.985c-3.667,2.27-3.493,4.89-5.064,5.938-1.4,1.048-1.572,2.794-2.62,4.191C-451.953,1.4-453,2.969-453,4.89c0,4.191,3.842,5.588,7.335,5.588,5.414,0,6.461-2.794,9.6-3.318,1.921-.349,3.667-1.572,5.588-2.27,2.1-.7,2.969-3.842,4.54-3.842,3.318,0,5.763-6.811,10.3-6.811,2.1,0,7.684,4.191,9.081,5.588,2.27,2.1,4.89,1.921,7.335,3.667a11.14,11.14,0,0,0,6.287,1.921c1.746,0,3.493-.7,5.414-.7h2.1a5.98,5.98,0,0,0,3.143-.7,11.815,11.815,0,0,1,6.287-1.746c2.794,0,6.636-4.54,9.43-5.763,2.62-1.222,4.366-4.366,7.16-5.938,2.62-1.572,3.667-4.715,5.064-7.335,1.222-2.27,2.27-2.794,4.89-2.794s4.89-.873,7.335-.873c2.27,0,3.842-.7,5.938-.873.175,0,1.222-.175,1.572-.175,1.222,0,1.746,0,2.1-.7A2.705,2.705,0,0,0-332.154-23.576ZM-290.242-7.16c0-.873-1.048-1.048-1.746-1.048a6.087,6.087,0,0,0-2.969,1.048c-1.222.873-2.445.524-4.54,2.1-2.794,2.1-7.16,1.4-9.081,2.969a2.682,2.682,0,0,1-2.27.873c-.7,0-1.4-.175-1.921-.175-1.222,0-2.27.524-3.493.524a4.185,4.185,0,0,1-4.017-4.017,6.809,6.809,0,0,1,3.667-5.414c1.921-.873,2.27-3.842,3.842-4.89a1.7,1.7,0,0,0,.7-1.572c0-2.1-1.4-2.27-2.969-2.27-1.746,0-3.842.349-4.89,1.746-1.4,1.746-2.62,3.667-4.54,4.89-1.048.7-4.54,4.017-4.54,5.239,0,1.048,1.048,1.921,1.572,2.794.873,1.222.873,3.143,1.222,4.715.873,2.62,6.461,4.715,9.081,4.715,2.27,0,4.715-1.4,6.811-1.921,2.794-.7,6.287-1.048,8.382-2.969A28.523,28.523,0,0,1-296-3.143C-294.433-3.842-290.242-5.064-290.242-7.16Zm16.59-45.754c0-1.222-1.222-2.27-1.4-3.667-.349-2.1,0-4.89-1.572-6.636-.7-.7-1.746-1.921-2.62-1.921-1.4,0-4.89,5.064-4.89,6.985,0,4.191,2.62,8.033,6.985,8.033C-275.747-50.12-273.652-51.517-273.652-52.914Zm67.758,45.929c0-1.048-1.222-1.4-1.921-1.4-2.1,0-9.081,4.017-12.224,5.064-2.969,1.048-5.588,3.143-8.906,3.143-4.715,0-5.763-1.4-6.985-5.938a10.307,10.307,0,0,1-.349-2.445c0-5.064,5.763-4.017,5.763-7.509,0-1.921-2.27-5.414-4.366-5.414-3.667,0-8.557,5.064-10.653,7.684-1.4,1.572-11.7,8.732-13.1,8.732-.7,0-.873-.349-.873-1.048,0-2.62,2.62-4.54,2.62-6.287,0-2.1-4.366-5.414-6.461-5.414a5.887,5.887,0,0,0-2.969.873c-3.318,1.921-6.287,4.191-9.6,5.938-2.794,1.4-5.588,2.445-8.208,3.842-.873.349-4.715,2.27-4.715,3.493,0,.7,1.921.873,2.445.873a8.539,8.539,0,0,0,4.017-1.4c3.143-1.921,6.811-1.921,10.3-3.493a3.7,3.7,0,0,1,1.222-.524c.873,0,3.143,2.62,3.143,3.318,0,2.1-3.667,3.667-3.667,5.938,0,2.1,2.27,3.143,4.191,3.143,8.732,0,9.6-5.239,15.542-7.684,2.1-.873,6.811-4.54,8.382-4.54s.873,5.414,1.921,6.985c1.921,3.143,5.064,6.287,9.081,6.287a18.614,18.614,0,0,0,5.239-1.048c2.1-.7,3.493-2.62,5.588-2.794,2.794-.175,3.493-1.222,5.588-2.445a42.194,42.194,0,0,1,6.985-3.318C-207.815-4.89-205.894-5.763-205.894-6.985Zm83.824,0c0-1.048-1.222-1.4-1.921-1.4-2.1,0-9.081,4.017-12.224,5.064-2.969,1.048-5.588,3.143-8.906,3.143-4.715,0-5.763-1.4-6.985-5.938a10.307,10.307,0,0,1-.349-2.445c0-5.064,5.763-4.017,5.763-7.509,0-1.921-2.27-5.414-4.366-5.414-3.667,0-8.557,5.064-10.653,7.684-1.4,1.572-11.7,8.732-13.1,8.732-.7,0-.873-.349-.873-1.048,0-2.62,2.62-4.54,2.62-6.287,0-2.1-4.366-5.414-6.461-5.414a5.887,5.887,0,0,0-2.969.873c-3.318,1.921-6.287,4.191-9.6,5.938-2.794,1.4-5.588,2.445-8.208,3.842-.873.349-4.715,2.27-4.715,3.493,0,.7,1.921.873,2.445.873a8.539,8.539,0,0,0,4.017-1.4c3.143-1.921,6.811-1.921,10.3-3.493a3.7,3.7,0,0,1,1.222-.524c.873,0,3.143,2.62,3.143,3.318,0,2.1-3.667,3.667-3.667,5.938,0,2.1,2.27,3.143,4.191,3.143,8.732,0,9.6-5.239,15.542-7.684,2.1-.873,6.811-4.54,8.382-4.54s.873,5.414,1.921,6.985c1.921,3.143,5.064,6.287,9.081,6.287A18.614,18.614,0,0,0-143.2,4.191c2.1-.7,3.493-2.62,5.588-2.794,2.794-.175,3.493-1.222,5.588-2.445a42.194,42.194,0,0,1,6.985-3.318C-123.99-4.89-122.069-5.763-122.069-6.985Zm27.418-11.351c0,1.048-2.969,2.794-3.842,3.667s-2.27.873-3.318,1.572c-.349.175-.873.7-1.222.7s-.349-.175-.349-.349c0-.7,1.572-2.1,2.1-2.62,1.4-1.572,3.842-3.318,5.938-3.318C-95-18.686-94.652-18.686-94.652-18.337Zm23.4,11.351a1.426,1.426,0,0,0-1.572-1.4c-2.794,0-9.954,5.064-13.621,5.414S-93.08.524-98.494.524C-101.637.524-106-2.27-106-5.588c0-1.921,6.636-3.493,8.033-4.89,3.842-3.493,9.256-3.318,9.256-11,0-2.62-1.572-2.969-3.667-2.969h-1.572c-3.493,0-6.636,3.143-9.6,4.89-3.493,2.1-4.366,3.318-6.636,6.461C-112.639-9.6-113.338-8.033-117-6.112c-.524.524-1.4,1.048-1.4,1.921a1.587,1.587,0,0,0,1.746,1.4c1.572,0,1.921,4.017,7.16,5.588a17.064,17.064,0,0,1,5.239,1.921,7.718,7.718,0,0,0,3.842.873c3.667,0,16.066-4.191,19.21-6.461a32.032,32.032,0,0,1,5.239-3.143C-74.743-4.366-71.251-5.414-71.251-6.985ZM2.969-9.954A1.688,1.688,0,0,0,1.4-11.526c-.873,0-8.382,5.239-13.272,5.239-1.572,0-3.318-.524-4.017-2.1a10.747,10.747,0,0,1-.524-3.143c0-2.1-.7-3.667-.7-5.763V-18.86c0-1.921-1.746-5.588-4.017-5.588-.349,0-5.064,1.746-6.112,2.1-3.318.7-2.445,1.921-4.715,3.667a7.719,7.719,0,0,1-4.191,1.921c-.524,0-.873-.175-.873-.873,0-1.4-2.794-2.1-4.017-2.445-1.222,0-6.985,4.191-8.208,4.89-2.969,1.4-6.636,2.794-9.081,5.064-1.572,1.572-7.16,2.794-7.16,5.064a1.426,1.426,0,0,0,1.572,1.4c1.222,0,3.842-1.921,5.588-2.27,1.746-.524,4.366-2.969,5.938-2.969,2.1,0,4.017-3.493,6.636-3.493.7,0,1.4.349,1.4,1.048a5.662,5.662,0,0,1-2.969,5.064c-2.27,1.4-3.143,3.667-5.239,5.239-1.572,1.222-6.287,4.89-6.287,6.985,0,1.572,1.746,2.1,2.969,2.1,4.715,0,4.89-2.62,6.985-4.191,4.191-3.143,4.017-6.811,9.954-10.3,1.921-1.048,2.969-2.969,5.064-3.667a11.134,11.134,0,0,0,6.112-4.017c.7-1.4,2.1-4.191,3.842-4.191A2.033,2.033,0,0,1-22-16.066c0,1.4-1.048,2.445-1.048,3.842,0,.873-.175,1.572-.175,2.27a1.934,1.934,0,0,0,.873,1.746c2.27,1.572,1.222,2.62,4.366,4.366A13.417,13.417,0,0,0-11.7-2.27a12.1,12.1,0,0,0,3.493-.524c2.27-.524,7.859-3.667,9.954-5.239A2.519,2.519,0,0,0,2.969-9.954ZM112.988-6.811c0,4.191-5.763,4.017-8.382,5.588a4.964,4.964,0,0,1-2.1.7A1.723,1.723,0,0,1,100.764-2.1c0-4.191,7.509-6.461,10.827-6.461C112.814-8.557,112.988-7.859,112.988-6.811Zm69.5-74.918c0,3.493-.175,6.461-2.969,8.732-1.222,1.048-1.921,2.62-3.318,3.493a15.6,15.6,0,0,0-5.588,5.064c-1.746,2.445-4.191,2.969-6.636,4.191-2.794,1.4-2.1,2.62-5.938,3.318-2.1.524-3.143,2.445-5.064,3.143-4.715,1.921-9.43,3.318-13.971,5.414-2.1.873-4.366,2.1-6.636,2.1-4.191,0-7.859,3.143-12.05,3.143s-7.859,2.27-12.05,2.27c-.175,0-.7,0-.7-.175,0-.873,4.366-4.715,5.239-5.239,2.1-1.4,2.27-3.318,3.842-5.064,2.1-2.27,5.064-3.318,6.985-5.938,3.493-4.366,11.526-7.16,16.066-11.351s26.02-15.019,31.958-15.193c1.921-.175,3.667-.349,5.414-.349S182.493-84,182.493-81.729Zm6.811.524c0-8.033-3.493-7.509-9.6-9.78a8.87,8.87,0,0,0-2.969-.524c-7.335,0-19.384,8.208-22.528,8.208-1.921,0-5.414,3.493-7.684,4.366-3.667,1.048-16.241,8.906-19.734,11.351-1.746,1.4-2.794,3.318-4.366,4.715-3.143,2.794-7.509,3.143-9.78,6.811-2.445,4.017-11.526,12.748-15.368,16.066a27.312,27.312,0,0,1-6.985,4.715c-.873.349-3.318,1.048-3.318,2.27,0,.873.524,1.572.524,2.445,0,1.572-1.048,2.27-2.27,3.143-2.1,1.572-3.318,4.366-5.414,6.112-2.27,2.27-2.969,5.414-5.414,7.684C72.3-11.7,71.076-6.287,71.076-3.493c0,6.112,5.938,12.05,12.05,12.05,1.222,0,2.445-.524,3.667-.524s2.27.349,3.493.349c2.445,0,4.54-1.4,6.985-1.4,2.27,0,4.017-.349,5.588-2.1,1.4-1.4,3.318-.873,5.064-1.746C109.5,2.27,109.5,1.4,111.417,1.4c2.445,0,3.667-2.969,5.763-2.969,2.62,0,5.588-4.89,5.588-7.335,0-3.667-4.191-6.636-7.684-6.636-3.143,0-5.763,2.27-8.906,2.969-2.27.524-4.017,2.27-6.461,2.969-1.048.175-5.763,4.715-5.763,5.763C93.953-2.1,95.7-.7,95.7.175c0,2.969-4.715,2.969-6.811,2.969-4.715,0-9.081-1.921-9.081-7.509,0-4.89,8.033-13.8,10.478-18.686.873-1.4,2.445-1.746,3.318-2.969,1.921-2.445,2.62-4.366,5.763-5.414,3.667-1.222,4.017-3.318,8.382-3.493,3.667-.349,4.89-2.62,7.335-2.62,3.143,0,6.985-2.1,8.208-2.1,2.445,0,4.715-1.746,7.335-1.746,4.017,0,7.684-3.143,11.526-4.366,3.842-1.048,6.985-3.143,11-3.842,2.445-.349,4.89-3.143,7.509-4.017,1.921-.7,4.54-3.143,6.287-3.143,1.921,0,3.667-2.969,5.938-3.667,6.811-2.27,1.921-4.715,7.859-7.509C184.588-69.679,189.3-77.014,189.3-81.2ZM172.888-7.684c0,.7-1.572,1.4-2.1,1.572-3.143,1.4-4.191,5.938-8.906,5.938-1.222,0-3.842-.7-3.842-2.27,0-1.048,1.4-2.27,1.746-3.493.349-1.572,1.222-3.842,2.969-4.54,2.1-.873,2.794-4.017,6.636-4.017,0,0,.524.175.524.349,0,.524-.175.7-.175,1.048v.7a7,7,0,0,0,1.4,2.969C171.665-8.906,172.888-8.557,172.888-7.684Zm4.89-5.763a.825.825,0,0,1-.873.873c-.524,0-1.572-.524-1.572-1.222,0-.524.873-.7,1.222-.7A1.168,1.168,0,0,1,177.778-13.447Zm25.846,4.191c0-.349-.175-.873-.7-.873-2.62,0-6.112,4.017-11,4.017-2.969,0-8.906-1.921-8.906-5.588,0-1.222.873-1.921.873-2.445,0-1.222-2.62-3.842-3.842-3.842-2.27,0-2.969-2.794-5.239-2.794-2.794,0-5.414,1.572-8.033,2.1-4.366.524-11.875,8.208-14.495,11.351-1.222,1.4-1.048,3.842-1.921,5.414a2.817,2.817,0,0,0-.524,1.572c0,2.62,4.54,5.588,6.985,5.588,1.572,0,2.969-.7,4.54-.7,4.54,0,6.461-3.493,10.3-4.89,1.572-.524,3.493-1.4,4.191-3.318a5.141,5.141,0,0,1,2.794-1.746c.873,0,2.969,1.048,3.842,1.4A28.719,28.719,0,0,0,191.05-2.27C194.193-2.27,203.623-5.414,203.623-9.256Zm79.459,2.62c0-.873-1.4-1.222-2.1-1.222-1.746,0-4.017,1.4-5.763,2.27-4.54,2.27-10.3,3.143-15.019,5.239A6.2,6.2,0,0,1,258.459,0c-2.1,0-4.715-4.191-4.715-5.763,0-3.667,4.715-4.89,4.715-8.732,0-2.27-1.4-4.54-3.842-4.54-2.62,0-3.493,3.667-5.938,4.017-3.667.349-5.414,4.191-8.557,5.588-3.493,1.4-5.239,5.588-7.859,6.461-2.969,1.048-6.811,2.794-9.954,2.794a2.138,2.138,0,0,1-2.445-2.445c0-7.16,4.54-4.715,7.335-8.732,1.222-1.746,2.1-4.54,4.715-4.54.7,0,1.222-.349,1.222-1.048,0-1.746-1.746-4.017-3.493-4.017a6.5,6.5,0,0,0-4.89,2.27c-1.746,2.27-4.54,3.493-6.461,5.763-2.445,3.143-6.287,3.842-8.557,5.763a2.133,2.133,0,0,0-.7,1.572c0,4.366,2.445,4.366,3.842,6.811s7.859,3.143,10.653,3.143c2.27,0,5.064-1.746,7.509-2.27,3.842-.7,4.715-2.62,6.461-2.969C240.3-1.4,241-5.938,245.361-5.938c1.746,0,3.143,6.287,6.112,8.732,2.62,1.921,4.017,1.222,6.811,2.1h.873c2.27,0,5.064-3.143,8.208-3.667,4.017-.524,6.811-2.27,10.129-4.191C278.541-3.493,283.082-5.414,283.082-6.636Zm73.87-3.318a1.688,1.688,0,0,0-1.572-1.572c-.873,0-8.382,5.239-13.272,5.239-1.572,0-3.318-.524-4.017-2.1a10.747,10.747,0,0,1-.524-3.143c0-2.1-.7-3.667-.7-5.763V-18.86c0-1.921-1.746-5.588-4.017-5.588-.349,0-5.064,1.746-6.112,2.1-3.318.7-2.445,1.921-4.715,3.667a7.719,7.719,0,0,1-4.191,1.921c-.524,0-.873-.175-.873-.873,0-1.4-2.794-2.1-4.017-2.445-1.222,0-6.985,4.191-8.208,4.89-2.969,1.4-6.636,2.794-9.081,5.064-1.572,1.572-7.16,2.794-7.16,5.064a1.426,1.426,0,0,0,1.572,1.4c1.222,0,3.842-1.921,5.588-2.27,1.746-.524,4.366-2.969,5.938-2.969,2.1,0,4.017-3.493,6.636-3.493.7,0,1.4.349,1.4,1.048a5.662,5.662,0,0,1-2.969,5.064c-2.27,1.4-3.143,3.667-5.239,5.239-1.572,1.222-6.287,4.89-6.287,6.985,0,1.572,1.746,2.1,2.969,2.1,4.715,0,4.89-2.62,6.985-4.191C309.277.7,309.1-2.969,315.04-6.461c1.921-1.048,2.969-2.969,5.064-3.667a11.134,11.134,0,0,0,6.112-4.017c.7-1.4,2.1-4.191,3.842-4.191a2.033,2.033,0,0,1,1.921,2.27c0,1.4-1.048,2.445-1.048,3.842,0,.873-.175,1.572-.175,2.27a1.934,1.934,0,0,0,.873,1.746c2.27,1.572,1.222,2.62,4.366,4.366a13.417,13.417,0,0,0,6.287,1.572,12.1,12.1,0,0,0,3.493-.524c2.27-.524,7.859-3.667,9.954-5.239A2.519,2.519,0,0,0,356.952-9.954ZM370.224,2.62a2.05,2.05,0,0,1-1.746,1.572c-.524,0-1.222-.524-1.222-1.048,0-.7,1.4-1.222,1.921-1.222S370.224,2.1,370.224,2.62Zm29.862-27.767c0-2.445-3.493-2.969-5.239-2.969-2.445,0-5.763.873-7.16,2.969-1.572,2.1-2.62,1.572-4.191,4.715-1.746,4.017-17.289,8.557-21.655,12.224-1.4,1.048-6.461,2.62-6.461,4.366,0,1.048,1.222,1.222,1.921,1.222,1.921,0,9.081-4.54,12.4-4.89,2.62-.524,6.636-4.715,8.208-4.715,2.27,0,3.667-1.921,4.715-1.921s2.27,1.921,2.27,2.969c0,2.1-1.4,9.78-4.366,9.78-1.572,0-2.969.175-4.54.175-1.746,0-1.4-.7-2.62-.7-.873,0-1.921.175-2.794.175-.7,0-1.222-.175-1.746-.175-1.921,0-7.335,4.191-7.335,6.112,0,2.1,3.143,4.366,5.064,4.366s3.493-1.222,5.588-1.222c.524,0,1.4.175,2.27.175a5.7,5.7,0,0,0,2.1-.349,7,7,0,0,1,3.842-1.746c1.746-.349,3.667-2.27,5.588-2.969,1.572-.7,2.27-2.969,3.318-4.366,1.4-1.572,2.1-4.715,2.1-6.811,0-1.746-.873-3.143-.873-4.715,0-5.064,5.239-4.191,5.938-5.763C397.118-21.131,400.087-23.576,400.087-25.147Zm38.07,6.811c0,1.048-2.969,2.794-3.842,3.667S432.045-13.8,431-13.1c-.349.175-.873.7-1.222.7s-.349-.175-.349-.349c0-.7,1.572-2.1,2.1-2.62,1.4-1.572,3.842-3.318,5.938-3.318C437.808-18.686,438.157-18.686,438.157-18.337Zm23.4,11.351a1.426,1.426,0,0,0-1.572-1.4c-2.794,0-9.954,5.064-13.621,5.414S439.729.524,434.315.524c-3.143,0-7.509-2.794-7.509-6.112,0-1.921,6.636-3.493,8.033-4.89,3.842-3.493,9.256-3.318,9.256-11,0-2.62-1.572-2.969-3.667-2.969h-1.572c-3.493,0-6.636,3.143-9.6,4.89-3.493,2.1-4.366,3.318-6.636,6.461C420.17-9.6,419.471-8.033,415.8-6.112c-.524.524-1.4,1.048-1.4,1.921a1.587,1.587,0,0,0,1.746,1.4c1.572,0,1.921,4.017,7.16,5.588a17.064,17.064,0,0,1,5.239,1.921,7.718,7.718,0,0,0,3.842.873c3.667,0,16.066-4.191,19.21-6.461a32.03,32.03,0,0,1,5.239-3.143C458.065-4.366,461.558-5.414,461.558-6.985Z" transform="translate(453.001 98.319)" fill="#fff"/>
</svg>
