<svg xmlns="http://www.w3.org/2000/svg" width="867.932" height="164.331" viewBox="0 0 867.932 164.331">
  <path id="パス_6822" data-name="パス 6822" d="M-375.813-8.557c0,.175-.175.349-.349.524-1.746,1.048-2.27,2.969-4.017,3.842-2.1,1.048-4.191,3.842-5.938,4.191-2.27.7-4.017,2.794-6.461,3.143-2.27.524-2.794,2.1-5.588,2.445-2.27,0-3.842,1.572-5.588,1.572-.7,0-1.4-.175-2.1-.175-.524,0-1.4.175-2.27.175a7.75,7.75,0,0,1-2.27-.349c-2.27-1.4-4.54-5.588-4.54-8.033s1.4-4.366,1.746-6.636c.524-3.318,5.064-6.811,8.033-7.859,2.27-.7,4.366-1.921,6.636-2.445,2.445-.524,4.191-2.62,6.636-2.62,1.746,0,3.493-.175,5.239-.175,5.938,0,3.842,5.239,5.239,7.684s3.143,2.794,5.414,4.191C-375.987-8.906-375.813-8.732-375.813-8.557Zm69.155-73.521c0,1.572-2.969,5.938-4.191,6.985-2.27,1.746-3.842,4.191-6.287,5.763-2.1,1.4-2.794,4.191-5.239,5.239s-3.842,4.191-6.112,5.239c-2.27,1.222-6.985,5.938-9.081,5.938-.349,0-.524-.349-.524-.873,0-1.222,1.746-5.064,2.445-6.461,1.921-4.017,5.064-10.478,9.081-12.923,2.794-1.572,3.493-3.842,6.811-4.89,4.715-1.4,3.493-4.89,10.478-5.064C-308.229-83.126-306.658-82.951-306.658-82.078ZM-296-90.111c0-2.445-2.27-2.27-4.017-3.143a7.322,7.322,0,0,0-2.794-.7c-1.921,0-3.493,1.222-5.064,2.1-3.667,2.445-5.414,1.048-10.3,5.414-4.017,3.667-9.256,5.938-13.447,9.6-5.763,5.239-7.684,5.763-11.351,13.621-1.222,2.794-2.969,5.414-4.191,8.382a26.054,26.054,0,0,1-4.191,8.557c-1.048,1.4-8.208,2.794-10.478,3.667-1.746.524-8.732,1.4-8.732,3.842,0,.873,1.921,1.572,2.62,1.572,2.27,0,2.1-3.318,6.811-3.318,3.842,0,5.414-1.921,7.509-1.921a.64.64,0,0,1,.7.7c0,1.222-1.572,4.366-1.921,5.938-.7,2.794-2.969,4.715-3.842,7.509-.7,3.318-3.667,4.191-4.54,6.985-.7,2.1-5.064,7.684-7.509,7.684-.873,0-.873-1.222-.873-1.746,0-2.445.349-4.715.349-6.985,0-3.143-5.414-3.842-7.684-4.89a8.87,8.87,0,0,0-2.969-.524c-2.62,0-5.239,1.4-8.033,1.4-.524,0-1.048-.175-1.572-.175-1.572,0-4.54,1.921-6.985,2.1-2.62.349-4.715,2.1-7.335,2.794-3.318.7-3.842,4.017-6.636,5.588s-4.017,4.89-5.414,7.509c-1.572,2.794-1.572,6.636-1.572,9.6s2.27,4.89,3.143,7.335c1.4,3.318,4.54,2.27,6.811,3.842a3.394,3.394,0,0,0,2.27.524,55.708,55.708,0,0,0,9.43-1.222c2.969-.524,8.557-3.493,9.78-3.493,4.191,0,6.985-5.064,10.3-5.064,2.62,0,10.653-8.732,13.1-10.653,2.62-2.1,8.382-7.859,9.954-10.653,1.572-2.969,2.794-6.112,4.715-8.906,1.746-2.62,2.1-4.715,3.143-7.684a53.964,53.964,0,0,1,2.445-5.588c2.445-4.715,2.27-5.414,6.636-7.859,3.318-1.746,5.414-5.064,8.732-6.636,2.27-1.222,3.842-1.746,5.239-4.017,1.572-2.27,5.763-4.89,8.033-7.335,1.572-1.572,3.493-2.794,4.89-4.715,1.746-2.1,4.366-3.493,5.938-5.763,1.048-1.746,3.318-4.89,5.239-5.588C-297.227-83.3-296-87.841-296-90.111Zm4.89,82.951c0-.873-1.048-1.048-1.746-1.048A6.087,6.087,0,0,0-295.83-7.16c-1.222.873-2.445.524-4.54,2.1-2.794,2.1-7.16,1.4-9.081,2.969a2.682,2.682,0,0,1-2.27.873c-.7,0-1.4-.175-1.921-.175-1.222,0-2.27.524-3.493.524a4.185,4.185,0,0,1-4.017-4.017,6.809,6.809,0,0,1,3.667-5.414c1.921-.873,2.27-3.842,3.842-4.89a1.7,1.7,0,0,0,.7-1.572c0-2.1-1.4-2.27-2.969-2.27-1.746,0-3.842.349-4.89,1.746-1.4,1.746-2.62,3.667-4.54,4.89-1.048.7-4.54,4.017-4.54,5.239,0,1.048,1.048,1.921,1.572,2.794.873,1.222.873,3.143,1.222,4.715.873,2.62,6.461,4.715,9.081,4.715,2.27,0,4.715-1.4,6.811-1.921,2.794-.7,6.287-1.048,8.382-2.969a28.523,28.523,0,0,1,5.938-3.318C-295.306-3.842-291.115-5.064-291.115-7.16Zm16.59-45.754c0-1.222-1.222-2.27-1.4-3.667-.349-2.1,0-4.89-1.572-6.636-.7-.7-1.746-1.921-2.62-1.921-1.4,0-4.89,5.064-4.89,6.985,0,4.191,2.62,8.033,6.985,8.033C-276.621-50.12-274.525-51.517-274.525-52.914Zm67.758,45.929c0-1.048-1.222-1.4-1.921-1.4-2.1,0-9.081,4.017-12.224,5.064-2.969,1.048-5.588,3.143-8.906,3.143-4.715,0-5.763-1.4-6.985-5.938a10.307,10.307,0,0,1-.349-2.445c0-5.064,5.763-4.017,5.763-7.509,0-1.921-2.27-5.414-4.366-5.414-3.667,0-8.557,5.064-10.653,7.684-1.4,1.572-11.7,8.732-13.1,8.732-.7,0-.873-.349-.873-1.048,0-2.62,2.62-4.54,2.62-6.287,0-2.1-4.366-5.414-6.461-5.414a5.887,5.887,0,0,0-2.969.873c-3.318,1.921-6.287,4.191-9.6,5.938-2.794,1.4-5.588,2.445-8.208,3.842-.873.349-4.715,2.27-4.715,3.493,0,.7,1.921.873,2.445.873a8.539,8.539,0,0,0,4.017-1.4c3.143-1.921,6.811-1.921,10.3-3.493a3.7,3.7,0,0,1,1.222-.524c.873,0,3.143,2.62,3.143,3.318,0,2.1-3.667,3.667-3.667,5.938,0,2.1,2.27,3.143,4.191,3.143,8.732,0,9.6-5.239,15.542-7.684,2.1-.873,6.811-4.54,8.382-4.54s.873,5.414,1.921,6.985c1.921,3.143,5.064,6.287,9.081,6.287A18.614,18.614,0,0,0-227.9,4.191c2.1-.7,3.493-2.62,5.588-2.794,2.794-.175,3.493-1.222,5.588-2.445a42.193,42.193,0,0,1,6.985-3.318C-208.688-4.89-206.767-5.763-206.767-6.985Zm5.414,35.276a3.1,3.1,0,0,1-.7,1.746c-2.969,3.667-6.112,6.985-8.906,10.827a33.1,33.1,0,0,1-3.318,3.667c-1.222,1.4-4.191,3.143-5.064,4.715a14.445,14.445,0,0,1-4.54,6.112c-1.4,1.048-5.064,6.112-6.112,6.112-.524,0-.7-.524-.7-.873,0-3.318,4.366-3.667,5.064-7.684.349-1.746,1.048-3.667,2.794-4.366s3.143-3.318,4.715-4.54c1.921-1.4,2.794-4.191,4.366-6.112,1.921-1.921,4.017-3.493,5.763-5.588.873-.873,4.715-4.89,5.938-4.89C-201.528,27.418-201.353,27.941-201.353,28.291ZM-139.009-7.16c0-.524-.524-1.4-1.048-1.4A9.825,9.825,0,0,0-143.2-7.335c-1.921.7-3.493.524-5.064,2.1-.524.524-5.239,1.572-6.461,2.1L-162.41,0c-2.445,1.048-9.954,5.938-11.7,5.938-.7,0-1.048-.349-1.048-.873,0-2.969,11.351-14.844,11.351-17.638a1.529,1.529,0,0,0-1.4-1.572c-1.572,0-4.017,2.445-5.763,3.143-1.572.524-3.842,3.143-5.064,3.143-1.921,0-2.445,1.921-4.017,1.921-.175,0-.524-.175-.7-.175-1.572,0-4.366,3.143-7.16,3.143-1.4,0-3.667-1.048-3.667-2.794,0-1.048,2.62-4.191,4.017-4.191,1.222,0,9.6-6.985,15.193-6.985,1.048,0,1.921.349,2.969.349.873,0,1.048-.873,1.048-1.572,0-1.572-.7-3.318-2.62-3.318s-3.842.524-5.763.7c-2.794.349-4.017.175-6.112,2.27-1.746,1.746-5.064,4.366-7.859,4.366-2.1,0-5.064,5.064-7.16,6.461a2.8,2.8,0,0,0-1.572,2.794c0,5.588,5.763,7.16,10.478,7.16,4.191,0,6.811-3.667,10.478-3.667.349,0,.873.175.873.7,0,1.048-3.493,5.239-4.191,6.112l-5.239,6.287c-3.493,4.191-12.923,7.859-15.542,11.526-1.048,1.746-3.842,1.746-5.064,3.667-1.222,2.445-6.287,4.366-7.16,6.811-1.222,2.794-5.239,5.588-6.811,8.208-1.222,2.445-4.54,5.064-5.414,7.16-1.048,2.969-5.763,8.382-7.684,11-1.572,1.921-4.017,5.588-4.017,8.208a1.852,1.852,0,0,0,2.1,2.1c2.445,0,5.763-2.62,7.509-4.366,3.842-3.842,8.033-7.335,12.05-11a107.27,107.27,0,0,0,14.32-16.416c4.017-5.588,9.081-10.478,13.272-15.892,3.318-4.191,5.239-6.461,10.129-8.906,3.143-1.572,6.985-4.89,9.954-5.763,3.143-.7,5.588-3.318,8.732-4.191,2.62-.873,4.54-2.794,7.16-3.143,3.318-.7,6.811-2.969,9.954-4.191C-142.5-4.017-139.009-5.414-139.009-7.16Zm64.265-45.58c-.175,3.143-7.509,11.351-9.954,12.574-2.62,1.222-4.191,3.667-5.938,5.938C-91.858-32.657-95-32.657-96.4-31.085c-1.222,1.572-2.1,3.493-3.842,4.366a13.228,13.228,0,0,0-2.27,1.746c-1.572,1.222-2.1,1.4-2.27,1.4s-.175-.175-.175-.524a3.291,3.291,0,0,1,.7-1.572,34.772,34.772,0,0,1,7.335-7.684c2.27-2.1,3.318-5.938,5.763-7.684,3.667-2.445,12.05-12.224,15.717-12.4a.862.862,0,0,1,.524.175S-74.743-53.263-74.743-52.74Zm10.478-6.636c0-2.969-1.4-3.667-4.191-3.667-9.43,0-8.208,5.588-13.971,7.335-4.017,1.048-6.636,4.54-9.78,7.16-2.969,2.445-6.287,4.89-8.208,8.382-1.746,2.794-4.54,4.715-6.112,7.509-1.921,3.318-5.239,6.112-6.811,9.6-1.048,2.27-4.017,6.461-6.461,7.509-2.1.873-3.143,3.842-5.588,4.89-2.794,1.048-4.715,3.143-7.335,4.366-.873.524-4.017,1.746-4.017,2.969,0,.524.873,1.048,1.4,1.048a12.863,12.863,0,0,0,2.445-.7c4.017-.7,10.3-6.287,13.272-6.287a2.033,2.033,0,0,1,1.921,2.27c0,5.938,3.493,11.526,10.129,11.526A2.6,2.6,0,0,0-106,4.191c2.1-1.222,4.89,0,8.906-2.27C-94.3.175-90.635-.349-88.365-1.921c1.921-1.222,8.557-2.62,8.557-5.064,0-.873-.175-1.4-1.222-1.4a9.2,9.2,0,0,0-4.191,1.4c-1.921,1.4-4.54,1.746-6.636,2.969-2.445,1.572-6.636,2.1-9.43,3.143A13.28,13.28,0,0,1-105.654.175c-2.27,0-4.017-1.222-4.017-3.493,0-.7.175-1.222.175-1.746,0-2.62-1.222-5.064-1.222-7.509,0-2.969,3.143-4.366,5.414-5.414,2.445-1.4,3.667-4.017,6.461-5.239,2.445-1.222,3.667-3.667,5.763-4.715a24.622,24.622,0,0,0,8.557-7.335c2.27-3.143,3.493-2.445,5.414-4.715,2.62-2.62,7.684-4.89,9.256-8.033C-67.234-53.438-64.265-51.692-64.265-59.376Zm12.224,41.039c0,1.048-2.969,2.794-3.842,3.667s-2.27.873-3.318,1.572c-.349.175-.873.7-1.222.7s-.349-.175-.349-.349c0-.7,1.572-2.1,2.1-2.62,1.4-1.572,3.842-3.318,5.938-3.318C-52.39-18.686-52.041-18.686-52.041-18.337Zm23.4,11.351a1.426,1.426,0,0,0-1.572-1.4c-2.794,0-9.954,5.064-13.621,5.414S-50.469.524-55.883.524c-3.143,0-7.509-2.794-7.509-6.112,0-1.921,6.636-3.493,8.033-4.89,3.842-3.493,9.256-3.318,9.256-11,0-2.62-1.572-2.969-3.667-2.969h-1.572c-3.493,0-6.636,3.143-9.6,4.89-3.493,2.1-4.366,3.318-6.636,6.461-2.445,3.493-3.143,5.064-6.811,6.985-.524.524-1.4,1.048-1.4,1.921a1.587,1.587,0,0,0,1.746,1.4c1.572,0,1.921,4.017,7.16,5.588a17.064,17.064,0,0,1,5.239,1.921,7.718,7.718,0,0,0,3.842.873c3.667,0,16.066-4.191,19.21-6.461a32.031,32.031,0,0,1,5.239-3.143C-32.133-4.366-28.64-5.414-28.64-6.985Zm99.192,1.4c0,1.746-14.32,8.557-16.416,8.557-3.143,0-6.112-3.842-6.112-6.636,0-1.572.873-2.62,1.572-3.842,1.4-2.27.873-4.715,4.017-5.239a30.57,30.57,0,0,1,5.588-.7,6.365,6.365,0,0,1,3.667.873C64.615-11,70.552-8.382,70.552-5.588ZM174.809-81.38a8.426,8.426,0,0,1-1.222,5.064c-1.921,3.318-2.969,6.811-6.112,9.256-1.572,1.222-4.89,4.89-6.461,5.414-4.715,1.572-6.112,7.509-12.923,8.557-1.921.349-4.017,3.143-6.811,3.842a24.784,24.784,0,0,0-6.985,2.1A7.716,7.716,0,0,1,131.5-46.1c-.7,0-.873-.7-.873-1.4,0-1.921,4.54-5.239,5.763-6.985,2.1-2.969,4.715-6.287,8.033-8.208s4.54-6.636,8.382-8.382c3.143-1.4,4.366-4.89,7.509-6.112,2.794-1.048,11.526-8.382,13.447-8.382.873,0,1.048,1.746,1.048,2.969Zm6.985-9.256c0-2.62-2.445-2.969-4.54-2.969a11.529,11.529,0,0,0-2.445.175c-3.842.349-9.43,4.54-12.4,6.811-3.842,3.143-9.78,4.54-12.574,9.081a12.253,12.253,0,0,1-1.746,2.794,25.983,25.983,0,0,0-9.78,8.208c-2.969,4.191-7.509,6.636-10.3,11-2.794,4.54-6.287,6.811-10.3,10.478-2.1,1.921-4.191,4.366-6.811,5.588-2.445,1.048-2.969,4.89-5.763,6.112-3.143,1.572-4.715,5.414-8.033,6.461-3.143,1.048-5.064,4.54-7.859,6.112C85.745-18.86,84-15.717,81.38-12.923c-.873.7-2.62,2.445-3.667,2.445-.873,0-1.4-.7-1.921-1.222-1.921-1.921-8.033-2.445-11.177-4.366a6.1,6.1,0,0,0-4.191-1.4H57.28c-1.4,0-2.969-.349-4.366-.349-5.414,0-6.985,6.112-8.732,10.129a9.713,9.713,0,0,0-1.048,3.667c0,1.921,1.048,3.493,1.572,5.239.349,2.27,1.921,6.112,4.715,6.112,2.969,0,5.763.349,8.557.349,3.318,0,4.89-2.445,7.859-3.143A15.95,15.95,0,0,0,73.346.873C74.22.175,75.093-.7,76.315-.7c4.366,0,8.208,5.064,12.748,5.064,4.017,0,7.684,2.1,11.7,2.1,3.318,0,6.461-1.746,9.954-1.746,4.715,0,8.033-2.794,12.574-3.667,4.191-.873,6.636-3.493,10.478-5.414.7-.524,3.143-1.572,3.143-2.794,0-.873-1.222-1.222-1.921-1.222-2.794,0-9.6,4.89-13.621,5.763C118.926-2.1,115.084,0,112.988,0c-.7,0-1.4-.175-1.921-.175-2.1,0-4.017.873-5.938.873-3.143,0-8.906-.524-11.7-1.572-1.222-.349-8.906-3.493-8.906-5.064,0-.7,11-11,12.224-12.05,4.54-3.842,9.081-7.335,13.621-11,2.62-2.27,7.859-8.033,11-8.732,4.715-1.048,8.557-3.842,12.923-5.414,2.969-1.048,5.414-2.445,8.557-2.794,3.842-.349,5.414-3.318,8.557-4.191,2.969-.7,3.318-3.143,7.16-4.191,4.366-1.222,9.081-6.985,12.224-10.129,3.318-3.318,3.143-5.414,5.239-7.684s2.27-5.064,4.017-7.509c1.572-2.445,1.746-6.985,1.746-10.129Zm36.673,84c0-.873-1.4-1.222-2.1-1.222-1.746,0-4.017,1.4-5.763,2.27-4.54,2.27-10.3,3.143-15.019,5.239A6.2,6.2,0,0,1,193.844,0c-2.1,0-4.715-4.191-4.715-5.763,0-3.667,4.715-4.89,4.715-8.732,0-2.27-1.4-4.54-3.842-4.54-2.62,0-3.493,3.667-5.938,4.017-3.667.349-5.414,4.191-8.557,5.588-3.493,1.4-5.239,5.588-7.859,6.461-2.969,1.048-6.811,2.794-9.954,2.794A2.138,2.138,0,0,1,155.25-2.62c0-7.16,4.54-4.715,7.335-8.732,1.222-1.746,2.1-4.54,4.715-4.54.7,0,1.222-.349,1.222-1.048,0-1.746-1.746-4.017-3.493-4.017a6.5,6.5,0,0,0-4.89,2.27c-1.746,2.27-4.54,3.493-6.461,5.763-2.445,3.143-6.287,3.842-8.557,5.763a2.133,2.133,0,0,0-.7,1.572c0,4.366,2.445,4.366,3.842,6.811s7.859,3.143,10.653,3.143c2.27,0,5.064-1.746,7.509-2.27,3.842-.7,4.715-2.62,6.461-2.969,2.794-.524,3.493-5.064,7.859-5.064,1.746,0,3.143,6.287,6.112,8.732,2.62,1.921,4.017,1.222,6.811,2.1h.873c2.27,0,5.064-3.143,8.208-3.667,4.017-.524,6.811-2.27,10.129-4.191C213.927-3.493,218.467-5.414,218.467-6.636Zm83.65-.349c0-1.048-1.222-1.4-1.921-1.4-2.1,0-9.081,4.017-12.224,5.064C285-2.27,282.383-.175,279.065-.175c-4.715,0-5.763-1.4-6.985-5.938a10.307,10.307,0,0,1-.349-2.445c0-5.064,5.763-4.017,5.763-7.509,0-1.921-2.27-5.414-4.366-5.414-3.667,0-8.557,5.064-10.653,7.684-1.4,1.572-11.7,8.732-13.1,8.732-.7,0-.873-.349-.873-1.048,0-2.62,2.62-4.54,2.62-6.287,0-2.1-4.366-5.414-6.461-5.414a5.887,5.887,0,0,0-2.969.873c-3.318,1.921-6.287,4.191-9.6,5.938-2.794,1.4-5.588,2.445-8.208,3.842-.873.349-4.715,2.27-4.715,3.493,0,.7,1.921.873,2.445.873a8.539,8.539,0,0,0,4.017-1.4c3.143-1.921,6.811-1.921,10.3-3.493a3.7,3.7,0,0,1,1.222-.524c.873,0,3.143,2.62,3.143,3.318,0,2.1-3.667,3.667-3.667,5.938,0,2.1,2.27,3.143,4.191,3.143,8.732,0,9.6-5.239,15.542-7.684,2.1-.873,6.811-4.54,8.382-4.54s.873,5.414,1.921,6.985c1.921,3.143,5.064,6.287,9.081,6.287a18.614,18.614,0,0,0,5.239-1.048c2.1-.7,3.493-2.62,5.588-2.794,2.794-.175,3.493-1.222,5.588-2.445a42.193,42.193,0,0,1,6.985-3.318C300.2-4.89,302.117-5.763,302.117-6.985Zm53.263.175c0-1.048-1.222-1.4-2.1-1.4-3.667,0-6.985,4.017-9.954,4.191-2.27.175-3.143,1.4-4.89,2.445-2.1,1.048-3.667.873-5.588,1.572a3.52,3.52,0,0,1-1.921.524c-2.27,0-3.143.524-4.715.524-2.27,0-4.191-1.572-5.588-1.572-2.794,0-2.969-3.318-2.969-5.414,0-1.746.7-2.27,1.746-2.62,2.794-1.222,3.667-5.064,6.811-5.064,2.445,0,1.572,2.62,3.842,2.62,2.1,0,4.715-1.048,4.715-3.493,0-2.62-2.27-7.335-5.414-7.335-.349,0-.873.175-1.4.175-2.62.349-5.763,2.969-7.684,4.715a73.2,73.2,0,0,1-5.763,4.54c-.873.7-.873,1.746-1.746,2.27-1.4,1.048-2.445,1.921-2.445,3.667,0,.873.175,1.572.175,2.27,0,1.048-.175,1.921-.175,2.794a6.278,6.278,0,0,0,.349,1.921c1.222,3.143,9.954,5.763,12.923,5.763,1.572,0,2.794-.873,4.191-.873h1.222c2.1,0,3.493-1.572,5.414-1.746.524-.175,9.081-3.493,9.6-3.842a38.441,38.441,0,0,1,4.54-2.62,19.047,19.047,0,0,0,5.414-2.445C354.682-5.588,355.381-6.112,355.381-6.811ZM443.4-72.648c0,2.27-3.318,7.335-4.715,8.906-2.1,2.794-4.54,4.715-6.985,7.16-1.4,1.4-2.445,3.143-3.842,4.366a32.589,32.589,0,0,0-5.763,5.239c-2.27,2.794-4.366,3.143-6.636,5.414-1.572,1.572-6.985,5.763-9.081,5.763a.463.463,0,0,1-.524-.524c0-4.366,2.445-8.033,4.54-11.526,2.27-3.842,10.129-16.59,14.32-17.289,3.667-.7,8.033-8.382,16.94-8.382C442.174-73.521,443.4-73.521,443.4-72.648Zm5.064-1.048c0-4.191-2.27-4.715-5.763-4.715-6.112,0-8.033,3.493-13.272,4.715-2.62.7-3.493,2.62-5.588,4.017a19.011,19.011,0,0,1-4.017,2.445c-6.985,3.318-21.655,27.418-25.147,34.752-1.572,3.318-6.636,11-10.653,11-3.493,0-4.017,4.191-7.16,4.89-2.969.7-4.017,2.62-6.287,4.54C369-10.827,358.7-5.239,358.7-4.54s1.746,1.222,2.445,1.222a10.546,10.546,0,0,0,3.842-1.048c2.969-1.222,5.064-3.842,8.033-4.89,2.27-.873,3.667-2.62,5.938-3.493a7.211,7.211,0,0,0,1.921-1.222,2.035,2.035,0,0,1,.349,1.222,4.461,4.461,0,0,1-2.62,4.366c-2.794,1.921-1.4,4.191-3.318,5.239S371.621-.7,371.621,1.572a2.983,2.983,0,0,0,3.318,3.143c2.445,0,5.938-1.4,8.208-2.62,3.667-2.1,2.969-3.667,8.557-5.763,2.445-.873,5.064-3.842,7.335-3.842,3.318,0,3.667,3.143,4.89,5.763,2.1,4.715,4.366,5.414,9.081,6.636h1.048c3.143,0,6.985-2.62,10.129-3.318C427.679.524,430.3-2.1,433.442-3.143c3.318-1.048,3.143-1.222,5.588-2.794a1.16,1.16,0,0,0,.7-.873c0-1.048-1.222-1.572-2.1-1.572a46.418,46.418,0,0,0-6.985,2.969c-3.143,1.746-6.287,2.27-9.43,3.667A15.274,15.274,0,0,1,414.581.175c-3.318,0-5.938-1.572-5.938-5.064,0-2.62,1.572-4.715,1.572-7.16a3.283,3.283,0,0,0-3.318-3.143c-2.969,0-6.112,3.493-9.081,4.191-3.842,1.048-7.16,6.636-11.351,6.636-.524,0-1.746,0-1.746-.7,0-.873,4.017-4.54,4.89-5.588a120.366,120.366,0,0,1,10.478-14.32c2.445-2.62,5.414-4.191,8.208-6.112,3.667-2.27,9.78-6.811,12.4-10.129,1.921-2.794,5.938-3.143,7.859-6.112a14.986,14.986,0,0,1,6.461-6.287c2.27-1.222,3.493-5.064,5.938-6.811s4.017-5.763,5.938-8.208A9.1,9.1,0,0,0,448.461-73.7Z" transform="translate(419.471 93.953)" fill="#fff"/>
</svg>
