<svg xmlns="http://www.w3.org/2000/svg" width="859.375" height="102.161" viewBox="0 0 859.375 102.161">
  <path id="パス_6820" data-name="パス 6820" d="M-395.022-5.588c0,1.746-14.32,8.557-16.416,8.557-3.143,0-6.112-3.842-6.112-6.636,0-1.572.873-2.62,1.572-3.842,1.4-2.27.873-4.715,4.017-5.239a30.57,30.57,0,0,1,5.588-.7,6.365,6.365,0,0,1,3.667.873C-400.96-11-395.022-8.382-395.022-5.588ZM-290.766-81.38a8.426,8.426,0,0,1-1.222,5.064C-293.909-73-294.957-69.5-298.1-67.06c-1.572,1.222-4.89,4.89-6.461,5.414-4.715,1.572-6.112,7.509-12.923,8.557-1.921.349-4.017,3.143-6.811,3.842a24.784,24.784,0,0,0-6.985,2.1,7.715,7.715,0,0,1-2.794,1.048c-.7,0-.873-.7-.873-1.4,0-1.921,4.54-5.239,5.763-6.985,2.1-2.969,4.715-6.287,8.033-8.208s4.54-6.636,8.382-8.382c3.143-1.4,4.366-4.89,7.509-6.112,2.794-1.048,11.526-8.382,13.447-8.382.873,0,1.048,1.746,1.048,2.969Zm6.985-9.256c0-2.62-2.445-2.969-4.54-2.969a11.529,11.529,0,0,0-2.445.175c-3.842.349-9.43,4.54-12.4,6.811-3.842,3.143-9.779,4.54-12.574,9.081a12.252,12.252,0,0,1-1.746,2.794,25.983,25.983,0,0,0-9.78,8.208c-2.969,4.191-7.509,6.636-10.3,11-2.794,4.54-6.287,6.811-10.3,10.478-2.1,1.921-4.191,4.366-6.811,5.588-2.445,1.048-2.969,4.89-5.763,6.112-3.143,1.572-4.715,5.414-8.033,6.461-3.143,1.048-5.064,4.54-7.859,6.112-3.493,1.921-5.239,5.064-7.859,7.859-.873.7-2.62,2.445-3.667,2.445-.873,0-1.4-.7-1.921-1.222-1.921-1.921-8.033-2.445-11.177-4.366a6.1,6.1,0,0,0-4.191-1.4h-3.143c-1.4,0-2.969-.349-4.366-.349-5.414,0-6.985,6.112-8.732,10.129a9.713,9.713,0,0,0-1.048,3.667c0,1.921,1.048,3.493,1.572,5.239.349,2.27,1.921,6.112,4.715,6.112,2.969,0,5.763.349,8.557.349,3.318,0,4.89-2.445,7.859-3.143A15.95,15.95,0,0,0-392.228.873c.873-.7,1.746-1.572,2.969-1.572,4.366,0,8.208,5.064,12.748,5.064,4.017,0,7.684,2.1,11.7,2.1,3.318,0,6.461-1.746,9.954-1.746,4.715,0,8.033-2.794,12.574-3.667,4.191-.873,6.636-3.493,10.478-5.414.7-.524,3.143-1.572,3.143-2.794,0-.873-1.222-1.222-1.921-1.222-2.794,0-9.6,4.89-13.621,5.763C-346.649-2.1-350.491,0-352.586,0c-.7,0-1.4-.175-1.921-.175-2.1,0-4.017.873-5.938.873-3.143,0-8.906-.524-11.7-1.572-1.222-.349-8.906-3.493-8.906-5.064,0-.7,11-11,12.224-12.05,4.54-3.842,9.081-7.335,13.621-11,2.62-2.27,7.859-8.033,11-8.732,4.715-1.048,8.557-3.842,12.923-5.414,2.969-1.048,5.414-2.445,8.557-2.794,3.842-.349,5.414-3.318,8.557-4.191,2.969-.7,3.318-3.143,7.16-4.191,4.366-1.222,9.081-6.985,12.224-10.129,3.318-3.318,3.143-5.414,5.239-7.684s2.27-5.064,4.017-7.509c1.572-2.445,1.746-6.985,1.746-10.129Zm36.673,84c0-.873-1.4-1.222-2.1-1.222-1.746,0-4.017,1.4-5.763,2.27-4.54,2.27-10.3,3.143-15.019,5.239A6.2,6.2,0,0,1-271.731,0c-2.1,0-4.715-4.191-4.715-5.763,0-3.667,4.715-4.89,4.715-8.732,0-2.27-1.4-4.54-3.842-4.54-2.62,0-3.493,3.667-5.938,4.017-3.667.349-5.414,4.191-8.557,5.588-3.493,1.4-5.239,5.588-7.859,6.461-2.969,1.048-6.811,2.794-9.954,2.794a2.138,2.138,0,0,1-2.445-2.445c0-7.16,4.54-4.715,7.335-8.732,1.222-1.746,2.1-4.54,4.715-4.54.7,0,1.222-.349,1.222-1.048,0-1.746-1.746-4.017-3.493-4.017a6.5,6.5,0,0,0-4.89,2.27c-1.746,2.27-4.54,3.493-6.461,5.763-2.445,3.143-6.287,3.842-8.557,5.763a2.133,2.133,0,0,0-.7,1.572c0,4.366,2.445,4.366,3.842,6.811s7.859,3.143,10.653,3.143c2.27,0,5.064-1.746,7.509-2.27,3.842-.7,4.715-2.62,6.461-2.969,2.794-.524,3.493-5.064,7.859-5.064,1.746,0,3.143,6.287,6.112,8.732,2.62,1.921,4.017,1.222,6.811,2.1h.873c2.27,0,5.064-3.143,8.208-3.667,4.017-.524,6.811-2.27,10.129-4.191C-251.648-3.493-247.107-5.414-247.107-6.636Zm83.65-.349c0-1.048-1.222-1.4-1.921-1.4-2.1,0-9.081,4.017-12.224,5.064-2.969,1.048-5.588,3.143-8.906,3.143-4.715,0-5.763-1.4-6.985-5.938a10.307,10.307,0,0,1-.349-2.445c0-5.064,5.763-4.017,5.763-7.509,0-1.921-2.27-5.414-4.366-5.414-3.667,0-8.557,5.064-10.653,7.684-1.4,1.572-11.7,8.732-13.1,8.732-.7,0-.873-.349-.873-1.048,0-2.62,2.62-4.54,2.62-6.287,0-2.1-4.366-5.414-6.461-5.414a5.887,5.887,0,0,0-2.969.873c-3.318,1.921-6.287,4.191-9.6,5.938-2.794,1.4-5.588,2.445-8.208,3.842-.873.349-4.715,2.27-4.715,3.493,0,.7,1.921.873,2.445.873a8.539,8.539,0,0,0,4.017-1.4c3.143-1.921,6.811-1.921,10.3-3.493a3.7,3.7,0,0,1,1.222-.524c.873,0,3.143,2.62,3.143,3.318,0,2.1-3.667,3.667-3.667,5.938,0,2.1,2.27,3.143,4.191,3.143,8.732,0,9.6-5.239,15.542-7.684,2.1-.873,6.811-4.54,8.382-4.54s.873,5.414,1.921,6.985c1.921,3.143,5.064,6.287,9.081,6.287a18.614,18.614,0,0,0,5.239-1.048c2.1-.7,3.493-2.62,5.588-2.794,2.794-.175,3.493-1.222,5.588-2.445a42.193,42.193,0,0,1,6.985-3.318C-165.379-4.89-163.458-5.763-163.458-6.985Zm53.263.175c0-1.048-1.222-1.4-2.1-1.4-3.667,0-6.985,4.017-9.954,4.191-2.27.175-3.143,1.4-4.89,2.445C-129.229-.524-130.8-.7-132.722,0a3.52,3.52,0,0,1-1.921.524c-2.27,0-3.143.524-4.715.524-2.27,0-4.191-1.572-5.588-1.572-2.794,0-2.969-3.318-2.969-5.414,0-1.746.7-2.27,1.746-2.62,2.794-1.222,3.667-5.064,6.811-5.064,2.445,0,1.572,2.62,3.842,2.62,2.1,0,4.715-1.048,4.715-3.493,0-2.62-2.27-7.335-5.414-7.335-.349,0-.873.175-1.4.175-2.62.349-5.763,2.969-7.684,4.715a73.2,73.2,0,0,1-5.763,4.54c-.873.7-.873,1.746-1.746,2.27-1.4,1.048-2.445,1.921-2.445,3.667,0,.873.175,1.572.175,2.27,0,1.048-.175,1.921-.175,2.794A6.278,6.278,0,0,0-154.9.524c1.222,3.143,9.954,5.763,12.923,5.763,1.572,0,2.794-.873,4.191-.873h1.222c2.1,0,3.493-1.572,5.414-1.746.524-.175,9.081-3.493,9.6-3.842A38.44,38.44,0,0,1-117-2.794a19.047,19.047,0,0,0,5.414-2.445C-110.893-5.588-110.194-6.112-110.194-6.811Zm88.016-65.837c0,2.27-3.318,7.335-4.715,8.906-2.1,2.794-4.54,4.715-6.985,7.16-1.4,1.4-2.445,3.143-3.842,4.366a32.59,32.59,0,0,0-5.763,5.239c-2.27,2.794-4.366,3.143-6.636,5.414C-51.692-39.991-57.105-35.8-59.2-35.8a.463.463,0,0,1-.524-.524c0-4.366,2.445-8.033,4.54-11.526,2.27-3.842,10.129-16.59,14.32-17.289,3.667-.7,8.033-8.382,16.94-8.382C-23.4-73.521-22.179-73.521-22.179-72.648Zm5.064-1.048c0-4.191-2.27-4.715-5.763-4.715-6.112,0-8.033,3.493-13.272,4.715-2.62.7-3.493,2.62-5.588,4.017a19.012,19.012,0,0,1-4.017,2.445C-52.74-63.916-67.409-39.817-70.9-32.482c-1.572,3.318-6.636,11-10.653,11-3.493,0-4.017,4.191-7.16,4.89-2.969.7-4.017,2.62-6.287,4.54-1.572,1.222-11.875,6.811-11.875,7.509s1.746,1.222,2.445,1.222a10.546,10.546,0,0,0,3.842-1.048c2.969-1.222,5.064-3.842,8.033-4.89,2.27-.873,3.667-2.62,5.938-3.493A7.211,7.211,0,0,0-84.7-13.971a2.035,2.035,0,0,1,.349,1.222,4.461,4.461,0,0,1-2.62,4.366c-2.794,1.921-1.4,4.191-3.318,5.239S-93.953-.7-93.953,1.572a2.983,2.983,0,0,0,3.318,3.143c2.445,0,5.938-1.4,8.208-2.62C-78.76,0-79.459-1.572-73.87-3.667c2.445-.873,5.064-3.842,7.335-3.842,3.318,0,3.667,3.143,4.89,5.763,2.1,4.715,4.366,5.414,9.081,6.636h1.048c3.143,0,6.985-2.62,10.129-3.318C-37.9.524-35.276-2.1-32.133-3.143c3.318-1.048,3.143-1.222,5.588-2.794a1.16,1.16,0,0,0,.7-.873c0-1.048-1.222-1.572-2.1-1.572a46.417,46.417,0,0,0-6.985,2.969c-3.143,1.746-6.287,2.27-9.43,3.667A15.274,15.274,0,0,1-50.993.175c-3.318,0-5.938-1.572-5.938-5.064,0-2.62,1.572-4.715,1.572-7.16a3.283,3.283,0,0,0-3.318-3.143c-2.969,0-6.112,3.493-9.081,4.191-3.842,1.048-7.16,6.636-11.351,6.636-.524,0-1.746,0-1.746-.7,0-.873,4.017-4.54,4.89-5.588a120.366,120.366,0,0,1,10.478-14.32c2.445-2.62,5.414-4.191,8.208-6.112,3.667-2.27,9.78-6.811,12.4-10.129,1.921-2.794,5.938-3.143,7.859-6.112a14.986,14.986,0,0,1,6.461-6.287c2.27-1.222,3.493-5.064,5.938-6.811s4.017-5.763,5.938-8.208A9.1,9.1,0,0,0-17.114-73.7ZM88.365-6.811c0,4.191-5.763,4.017-8.382,5.588a4.964,4.964,0,0,1-2.1.7A1.723,1.723,0,0,1,76.14-2.1c0-4.191,7.509-6.461,10.827-6.461C88.19-8.557,88.365-7.859,88.365-6.811Zm69.5-74.918c0,3.493-.175,6.461-2.969,8.732-1.222,1.048-1.921,2.62-3.318,3.493a15.6,15.6,0,0,0-5.588,5.064c-1.746,2.445-4.191,2.969-6.636,4.191-2.794,1.4-2.1,2.62-5.938,3.318-2.1.524-3.143,2.445-5.064,3.143-4.715,1.921-9.43,3.318-13.971,5.414-2.1.873-4.366,2.1-6.636,2.1-4.191,0-7.859,3.143-12.05,3.143s-7.859,2.27-12.05,2.27c-.175,0-.7,0-.7-.175,0-.873,4.366-4.715,5.239-5.239,2.1-1.4,2.27-3.318,3.842-5.064,2.1-2.27,5.064-3.318,6.985-5.938,3.493-4.366,11.526-7.16,16.066-11.351S141.1-83.65,147.042-83.824c1.921-.175,3.667-.349,5.414-.349S157.869-84,157.869-81.729Zm6.811.524c0-8.033-3.493-7.509-9.6-9.78a8.87,8.87,0,0,0-2.969-.524c-7.335,0-19.384,8.208-22.528,8.208-1.921,0-5.414,3.493-7.684,4.366-3.667,1.048-16.241,8.906-19.734,11.351-1.746,1.4-2.794,3.318-4.366,4.715-3.143,2.794-7.509,3.143-9.78,6.811C85.571-52.041,76.49-43.309,72.648-39.991a27.312,27.312,0,0,1-6.985,4.715c-.873.349-3.318,1.048-3.318,2.27,0,.873.524,1.572.524,2.445,0,1.572-1.048,2.27-2.27,3.143-2.1,1.572-3.318,4.366-5.414,6.112-2.27,2.27-2.969,5.414-5.414,7.684-2.1,1.921-3.318,7.335-3.318,10.129,0,6.112,5.938,12.05,12.05,12.05,1.222,0,2.445-.524,3.667-.524s2.27.349,3.493.349c2.445,0,4.54-1.4,6.985-1.4,2.27,0,4.017-.349,5.588-2.1,1.4-1.4,3.318-.873,5.064-1.746C84.872,2.27,84.872,1.4,86.793,1.4c2.445,0,3.667-2.969,5.763-2.969,2.62,0,5.588-4.89,5.588-7.335,0-3.667-4.191-6.636-7.684-6.636-3.143,0-5.763,2.27-8.906,2.969-2.27.524-4.017,2.27-6.461,2.969C74.045-9.43,69.33-4.89,69.33-3.842,69.33-2.1,71.076-.7,71.076.175c0,2.969-4.715,2.969-6.811,2.969-4.715,0-9.081-1.921-9.081-7.509,0-4.89,8.033-13.8,10.478-18.686.873-1.4,2.445-1.746,3.318-2.969,1.921-2.445,2.62-4.366,5.763-5.414,3.667-1.222,4.017-3.318,8.382-3.493,3.667-.349,4.89-2.62,7.335-2.62,3.143,0,6.985-2.1,8.208-2.1,2.445,0,4.715-1.746,7.335-1.746,4.017,0,7.684-3.143,11.526-4.366,3.842-1.048,6.985-3.143,11-3.842,2.445-.349,4.89-3.143,7.509-4.017,1.921-.7,4.54-3.143,6.287-3.143,1.921,0,3.667-2.969,5.938-3.667,6.811-2.27,1.921-4.715,7.859-7.509C159.965-69.679,164.68-77.014,164.68-81.2ZM148.264-7.684c0,.7-1.572,1.4-2.1,1.572-3.143,1.4-4.191,5.938-8.906,5.938-1.222,0-3.842-.7-3.842-2.27,0-1.048,1.4-2.27,1.746-3.493.349-1.572,1.222-3.842,2.969-4.54,2.1-.873,2.794-4.017,6.636-4.017,0,0,.524.175.524.349,0,.524-.175.7-.175,1.048v.7a7,7,0,0,0,1.4,2.969C147.042-8.906,148.264-8.557,148.264-7.684Zm4.89-5.763a.825.825,0,0,1-.873.873c-.524,0-1.572-.524-1.572-1.222,0-.524.873-.7,1.222-.7A1.168,1.168,0,0,1,153.154-13.447ZM179-9.256c0-.349-.175-.873-.7-.873-2.62,0-6.112,4.017-11,4.017-2.969,0-8.906-1.921-8.906-5.588,0-1.222.873-1.921.873-2.445,0-1.222-2.62-3.842-3.842-3.842-2.27,0-2.969-2.794-5.239-2.794-2.794,0-5.414,1.572-8.033,2.1-4.366.524-11.875,8.208-14.495,11.351-1.222,1.4-1.048,3.842-1.921,5.414a2.817,2.817,0,0,0-.524,1.572c0,2.62,4.54,5.588,6.985,5.588,1.572,0,2.969-.7,4.54-.7,4.54,0,6.461-3.493,10.3-4.89,1.572-.524,3.493-1.4,4.191-3.318a5.141,5.141,0,0,1,2.794-1.746c.873,0,2.969,1.048,3.842,1.4a28.719,28.719,0,0,0,8.557,1.746C169.57-2.27,179-5.414,179-9.256Zm79.459,2.62c0-.873-1.4-1.222-2.1-1.222-1.746,0-4.017,1.4-5.763,2.27-4.54,2.27-10.3,3.143-15.019,5.239A6.2,6.2,0,0,1,233.835,0c-2.1,0-4.715-4.191-4.715-5.763,0-3.667,4.715-4.89,4.715-8.732,0-2.27-1.4-4.54-3.842-4.54-2.62,0-3.493,3.667-5.938,4.017-3.667.349-5.414,4.191-8.557,5.588-3.493,1.4-5.239,5.588-7.859,6.461-2.969,1.048-6.811,2.794-9.954,2.794a2.138,2.138,0,0,1-2.445-2.445c0-7.16,4.54-4.715,7.335-8.732,1.222-1.746,2.1-4.54,4.715-4.54.7,0,1.222-.349,1.222-1.048,0-1.746-1.746-4.017-3.493-4.017a6.5,6.5,0,0,0-4.89,2.27c-1.746,2.27-4.54,3.493-6.461,5.763-2.445,3.143-6.287,3.842-8.557,5.763a2.133,2.133,0,0,0-.7,1.572c0,4.366,2.445,4.366,3.842,6.811s7.859,3.143,10.653,3.143c2.27,0,5.064-1.746,7.509-2.27,3.842-.7,4.715-2.62,6.461-2.969,2.794-.524,3.493-5.064,7.859-5.064,1.746,0,3.143,6.287,6.112,8.732,2.62,1.921,4.017,1.222,6.811,2.1h.873c2.27,0,5.064-3.143,8.208-3.667,4.017-.524,6.811-2.27,10.129-4.191C253.918-3.493,258.459-5.414,258.459-6.636Zm73.87-3.318a1.688,1.688,0,0,0-1.572-1.572c-.873,0-8.382,5.239-13.272,5.239-1.572,0-3.318-.524-4.017-2.1a10.747,10.747,0,0,1-.524-3.143c0-2.1-.7-3.667-.7-5.763V-18.86c0-1.921-1.746-5.588-4.017-5.588-.349,0-5.064,1.746-6.112,2.1-3.318.7-2.445,1.921-4.715,3.667a7.719,7.719,0,0,1-4.191,1.921c-.524,0-.873-.175-.873-.873,0-1.4-2.794-2.1-4.017-2.445-1.222,0-6.985,4.191-8.208,4.89-2.969,1.4-6.636,2.794-9.081,5.064-1.572,1.572-7.16,2.794-7.16,5.064a1.426,1.426,0,0,0,1.572,1.4c1.222,0,3.842-1.921,5.588-2.27,1.746-.524,4.366-2.969,5.938-2.969,2.1,0,4.017-3.493,6.636-3.493.7,0,1.4.349,1.4,1.048a5.662,5.662,0,0,1-2.969,5.064c-2.27,1.4-3.143,3.667-5.239,5.239-1.572,1.222-6.287,4.89-6.287,6.985,0,1.572,1.746,2.1,2.969,2.1,4.715,0,4.89-2.62,6.985-4.191,4.191-3.143,4.017-6.811,9.954-10.3,1.921-1.048,2.969-2.969,5.064-3.667a11.135,11.135,0,0,0,6.112-4.017c.7-1.4,2.1-4.191,3.842-4.191a2.033,2.033,0,0,1,1.921,2.27c0,1.4-1.048,2.445-1.048,3.842,0,.873-.175,1.572-.175,2.27a1.934,1.934,0,0,0,.873,1.746c2.27,1.572,1.222,2.62,4.366,4.366A13.417,13.417,0,0,0,317.66-2.27a12.1,12.1,0,0,0,3.493-.524c2.27-.524,7.859-3.667,9.954-5.239A2.519,2.519,0,0,0,332.329-9.954ZM345.6,2.62a2.05,2.05,0,0,1-1.746,1.572c-.524,0-1.222-.524-1.222-1.048,0-.7,1.4-1.222,1.921-1.222S345.6,2.1,345.6,2.62Zm29.862-27.767c0-2.445-3.493-2.969-5.239-2.969-2.445,0-5.763.873-7.16,2.969-1.572,2.1-2.62,1.572-4.191,4.715-1.746,4.017-17.289,8.557-21.655,12.224-1.4,1.048-6.461,2.62-6.461,4.366,0,1.048,1.222,1.222,1.921,1.222,1.921,0,9.081-4.54,12.4-4.89,2.62-.524,6.636-4.715,8.208-4.715,2.27,0,3.667-1.921,4.715-1.921s2.27,1.921,2.27,2.969c0,2.1-1.4,9.78-4.366,9.78-1.572,0-2.969.175-4.54.175-1.746,0-1.4-.7-2.62-.7-.873,0-1.921.175-2.794.175-.7,0-1.222-.175-1.746-.175-1.921,0-7.335,4.191-7.335,6.112,0,2.1,3.143,4.366,5.064,4.366s3.493-1.222,5.588-1.222c.524,0,1.4.175,2.27.175a5.7,5.7,0,0,0,2.1-.349,7,7,0,0,1,3.842-1.746c1.746-.349,3.667-2.27,5.588-2.969,1.572-.7,2.27-2.969,3.318-4.366,1.4-1.572,2.1-4.715,2.1-6.811,0-1.746-.873-3.143-.873-4.715,0-5.064,5.239-4.191,5.938-5.763C372.495-21.131,375.463-23.576,375.463-25.147Zm38.07,6.811c0,1.048-2.969,2.794-3.842,3.667s-2.27.873-3.318,1.572c-.349.175-.873.7-1.222.7s-.349-.175-.349-.349c0-.7,1.572-2.1,2.1-2.62,1.4-1.572,3.842-3.318,5.938-3.318C413.184-18.686,413.534-18.686,413.534-18.337Zm23.4,11.351a1.426,1.426,0,0,0-1.572-1.4c-2.794,0-9.954,5.064-13.621,5.414S415.105.524,409.692.524c-3.143,0-7.509-2.794-7.509-6.112,0-1.921,6.636-3.493,8.033-4.89,3.842-3.493,9.256-3.318,9.256-11,0-2.62-1.572-2.969-3.667-2.969h-1.572c-3.493,0-6.636,3.143-9.6,4.89-3.493,2.1-4.366,3.318-6.636,6.461-2.445,3.493-3.143,5.064-6.811,6.985-.524.524-1.4,1.048-1.4,1.921a1.587,1.587,0,0,0,1.746,1.4c1.572,0,1.921,4.017,7.16,5.588a17.064,17.064,0,0,1,5.239,1.921,7.718,7.718,0,0,0,3.842.873c3.667,0,16.066-4.191,19.21-6.461a32.03,32.03,0,0,1,5.239-3.143C433.442-4.366,436.935-5.414,436.935-6.985Z" transform="translate(422.44 93.604)" fill="#fff"/>
</svg>
