<svg xmlns="http://www.w3.org/2000/svg" width="232.1" height="58" viewBox="0 0 232.1 58">
  <path id="パス_6821" data-name="パス 6821" d="M-93.65-3.2c0,1-8.2,4.9-9.4,4.9-1.8,0-3.5-2.2-3.5-3.8a4.306,4.306,0,0,1,.9-2.2c.8-1.3.5-2.7,2.3-3a17.5,17.5,0,0,1,3.2-.4,3.645,3.645,0,0,1,2.1.5C-97.05-6.3-93.65-4.8-93.65-3.2Zm59.7-43.4a4.825,4.825,0,0,1-.7,2.9c-1.1,1.9-1.7,3.9-3.5,5.3-.9.7-2.8,2.8-3.7,3.1-2.7.9-3.5,4.3-7.4,4.9-1.1.2-2.3,1.8-3.9,2.2a14.192,14.192,0,0,0-4,1.2,4.418,4.418,0,0,1-1.6.6c-.4,0-.5-.4-.5-.8,0-1.1,2.6-3,3.3-4a15.843,15.843,0,0,1,4.6-4.7c1.9-1.1,2.6-3.8,4.8-4.8,1.8-.8,2.5-2.8,4.3-3.5,1.6-.6,6.6-4.8,7.7-4.8.5,0,.6,1,.6,1.7Zm4-5.3c0-1.5-1.4-1.7-2.6-1.7a6.6,6.6,0,0,0-1.4.1c-2.2.2-5.4,2.6-7.1,3.9-2.2,1.8-5.6,2.6-7.2,5.2a7.016,7.016,0,0,1-1,1.6,14.878,14.878,0,0,0-5.6,4.7c-1.7,2.4-4.3,3.8-5.9,6.3-1.6,2.6-3.6,3.9-5.9,6a17.076,17.076,0,0,1-3.9,3.2c-1.4.6-1.7,2.8-3.3,3.5-1.8.9-2.7,3.1-4.6,3.7-1.8.6-2.9,2.6-4.5,3.5-2,1.1-3,2.9-4.5,4.5-.5.4-1.5,1.4-2.1,1.4-.5,0-.8-.4-1.1-.7-1.1-1.1-4.6-1.4-6.4-2.5a3.492,3.492,0,0,0-2.4-.8h-1.8c-.8,0-1.7-.2-2.5-.2-3.1,0-4,3.5-5,5.8a5.562,5.562,0,0,0-.6,2.1,10.4,10.4,0,0,0,.9,3c.2,1.3,1.1,3.5,2.7,3.5,1.7,0,3.3.2,4.9.2,1.9,0,2.8-1.4,4.5-1.8A9.133,9.133,0,0,0-92.05.5a2.842,2.842,0,0,1,1.7-.9c2.5,0,4.7,2.9,7.3,2.9,2.3,0,4.4,1.2,6.7,1.2,1.9,0,3.7-1,5.7-1,2.7,0,4.6-1.6,7.2-2.1,2.4-.5,3.8-2,6-3.1.4-.3,1.8-.9,1.8-1.6,0-.5-.7-.7-1.1-.7-1.6,0-5.5,2.8-7.8,3.3-1.4.3-3.6,1.5-4.8,1.5-.4,0-.8-.1-1.1-.1-1.2,0-2.3.5-3.4.5a24.631,24.631,0,0,1-6.7-.9c-.7-.2-5.1-2-5.1-2.9,0-.4,6.3-6.3,7-6.9,2.6-2.2,5.2-4.2,7.8-6.3,1.5-1.3,4.5-4.6,6.3-5,2.7-.6,4.9-2.2,7.4-3.1a21.611,21.611,0,0,1,4.9-1.6c2.2-.2,3.1-1.9,4.9-2.4,1.7-.4,1.9-1.8,4.1-2.4,2.5-.7,5.2-4,7-5.8,1.9-1.9,1.8-3.1,3-4.4s1.3-2.9,2.3-4.3c.9-1.4,1-4,1-5.8Zm21,48.1c0-.5-.8-.7-1.2-.7a9.088,9.088,0,0,0-3.3,1.3c-2.6,1.3-5.9,1.8-8.6,3a3.553,3.553,0,0,1-1,.2c-1.2,0-2.7-2.4-2.7-3.3,0-2.1,2.7-2.8,2.7-5a2.383,2.383,0,0,0-2.2-2.6c-1.5,0-2,2.1-3.4,2.3-2.1.2-3.1,2.4-4.9,3.2-2,.8-3,3.2-4.5,3.7-1.7.6-3.9,1.6-5.7,1.6a1.224,1.224,0,0,1-1.4-1.4c0-4.1,2.6-2.7,4.2-5,.7-1,1.2-2.6,2.7-2.6.4,0,.7-.2.7-.6a2.459,2.459,0,0,0-2-2.3,3.721,3.721,0,0,0-2.8,1.3c-1,1.3-2.6,2-3.7,3.3-1.4,1.8-3.6,2.2-4.9,3.3a1.222,1.222,0,0,0-.4.9c0,2.5,1.4,2.5,2.2,3.9s4.5,1.8,6.1,1.8c1.3,0,2.9-1,4.3-1.3,2.2-.4,2.7-1.5,3.7-1.7,1.6-.3,2-2.9,4.5-2.9,1,0,1.8,3.6,3.5,5,1.5,1.1,2.3.7,3.9,1.2h.5c1.3,0,2.9-1.8,4.7-2.1a14.887,14.887,0,0,0,5.8-2.4C-11.55-2-8.95-3.1-8.95-3.8ZM38.95-4c0-.6-.7-.8-1.1-.8-1.2,0-5.2,2.3-7,2.9-1.7.6-3.2,1.8-5.1,1.8-2.7,0-3.3-.8-4-3.4a5.9,5.9,0,0,1-.2-1.4c0-2.9,3.3-2.3,3.3-4.3,0-1.1-1.3-3.1-2.5-3.1-2.1,0-4.9,2.9-6.1,4.4-.8.9-6.7,5-7.5,5-.4,0-.5-.2-.5-.6,0-1.5,1.5-2.6,1.5-3.6,0-1.2-2.5-3.1-3.7-3.1a3.371,3.371,0,0,0-1.7.5C2.45-8.6.75-7.3-1.15-6.3c-1.6.8-3.2,1.4-4.7,2.2-.5.2-2.7,1.3-2.7,2,0,.4,1.1.5,1.4.5a4.89,4.89,0,0,0,2.3-.8c1.8-1.1,3.9-1.1,5.9-2a2.118,2.118,0,0,1,.7-.3c.5,0,1.8,1.5,1.8,1.9,0,1.2-2.1,2.1-2.1,3.4,0,1.2,1.3,1.8,2.4,1.8,5,0,5.5-3,8.9-4.4,1.2-.5,3.9-2.6,4.8-2.6s.5,3.1,1.1,4c1.1,1.8,2.9,3.6,5.2,3.6a10.659,10.659,0,0,0,3-.6c1.2-.4,2-1.5,3.2-1.6,1.6-.1,2-.7,3.2-1.4a24.161,24.161,0,0,1,4-1.9C37.85-2.8,38.95-3.3,38.95-4Zm30.5.1c0-.6-.7-.8-1.2-.8-2.1,0-4,2.3-5.7,2.4-1.3.1-1.8.8-2.8,1.4a22.267,22.267,0,0,1-3.2.9,2.016,2.016,0,0,1-1.1.3c-1.3,0-1.8.3-2.7.3-1.3,0-2.4-.9-3.2-.9-1.6,0-1.7-1.9-1.7-3.1,0-1,.4-1.3,1-1.5,1.6-.7,2.1-2.9,3.9-2.9,1.4,0,.9,1.5,2.2,1.5,1.2,0,2.7-.6,2.7-2,0-1.5-1.3-4.2-3.1-4.2-.2,0-.5.1-.8.1-1.5.2-3.3,1.7-4.4,2.7a41.92,41.92,0,0,1-3.3,2.6c-.5.4-.5,1-1,1.3-.8.6-1.4,1.1-1.4,2.1,0,.5.1.9.1,1.3,0,.6-.1,1.1-.1,1.6a3.6,3.6,0,0,0,.2,1.1c.7,1.8,5.7,3.3,7.4,3.3.9,0,1.6-.5,2.4-.5h.7c1.2,0,2-.9,3.1-1,.3-.1,5.2-2,5.5-2.2a22.011,22.011,0,0,1,2.6-1.5A10.907,10.907,0,0,0,68.65-3C69.05-3.2,69.45-3.5,69.45-3.9Zm50.4-37.7c0,1.3-1.9,4.2-2.7,5.1a38.723,38.723,0,0,1-4,4.1c-.8.8-1.4,1.8-2.2,2.5a18.662,18.662,0,0,0-3.3,3c-1.3,1.6-2.5,1.8-3.8,3.1-.9.9-4,3.3-5.2,3.3a.265.265,0,0,1-.3-.3c0-2.5,1.4-4.6,2.6-6.6,1.3-2.2,5.8-9.5,8.2-9.9,2.1-.4,4.6-4.8,9.7-4.8C119.15-42.1,119.85-42.1,119.85-41.6Zm2.9-.6c0-2.4-1.3-2.7-3.3-2.7-3.5,0-4.6,2-7.6,2.7-1.5.4-2,1.5-3.2,2.3a10.886,10.886,0,0,1-2.3,1.4c-4,1.9-12.4,15.7-14.4,19.9-.9,1.9-3.8,6.3-6.1,6.3-2,0-2.3,2.4-4.1,2.8-1.7.4-2.3,1.5-3.6,2.6-.9.7-6.8,3.9-6.8,4.3s1,.7,1.4.7a6.039,6.039,0,0,0,2.2-.6c1.7-.7,2.9-2.2,4.6-2.8,1.3-.5,2.1-1.5,3.4-2a4.129,4.129,0,0,0,1.1-.7,1.165,1.165,0,0,1,.2.7,2.554,2.554,0,0,1-1.5,2.5c-1.6,1.1-.8,2.4-1.9,3S78.75-.4,78.75.9a1.708,1.708,0,0,0,1.9,1.8,11.763,11.763,0,0,0,4.7-1.5c2.1-1.2,1.7-2.1,4.9-3.3,1.4-.5,2.9-2.2,4.2-2.2,1.9,0,2.1,1.8,2.8,3.3,1.2,2.7,2.5,3.1,5.2,3.8h.6c1.8,0,4-1.5,5.8-1.9,2-.6,3.5-2.1,5.3-2.7a8.729,8.729,0,0,0,3.2-1.6.664.664,0,0,0,.4-.5c0-.6-.7-.9-1.2-.9a26.58,26.58,0,0,0-4,1.7c-1.8,1-3.6,1.3-5.4,2.1a8.747,8.747,0,0,1-3.8,1.1c-1.9,0-3.4-.9-3.4-2.9,0-1.5.9-2.7.9-4.1a1.88,1.88,0,0,0-1.9-1.8c-1.7,0-3.5,2-5.2,2.4-2.2.6-4.1,3.8-6.5,3.8-.3,0-1,0-1-.4,0-.5,2.3-2.6,2.8-3.2a68.926,68.926,0,0,1,6-8.2,26.079,26.079,0,0,1,4.7-3.5,33.342,33.342,0,0,0,7.1-5.8c1.1-1.6,3.4-1.8,4.5-3.5a8.581,8.581,0,0,1,3.7-3.6c1.3-.7,2-2.9,3.4-3.9s2.3-3.3,3.4-4.7A5.21,5.21,0,0,0,122.75-42.2Z" transform="translate(109.35 53.6)" fill="#505050"/>
</svg>
