<svg xmlns="http://www.w3.org/2000/svg" xmlns:xlink="http://www.w3.org/1999/xlink" width="86" height="301.117" viewBox="0 0 86 301.117">
  <defs>
    <clipPath id="clip-path">
      <rect width="86" height="301.117" fill="none"/>
    </clipPath>
  </defs>
  <g id="Repeat_Grid_1" data-name="Repeat Grid 1" clip-path="url(#clip-path)">
    <g id="Group_236" data-name="Group 236" transform="translate(-69.91 -13534)">
      <g id="Group_235" data-name="Group 235">
        <g id="Group_233" data-name="Group 233">
          <g id="Group_232" data-name="Group 232">
            <path id="Path_69" data-name="Path 69" d="M120.98,13565.682a5.41,5.41,0,0,1-4.06-1.539,7.224,7.224,0,0,1-1.94-3.541.637.637,0,0,1,.36-.279.416.416,0,0,1,.4.039,4.927,4.927,0,0,0,2.12,2.281,6.825,6.825,0,0,0,3.16.68,4.211,4.211,0,0,0,2.04-.521,4.306,4.306,0,0,0,1.58-1.479,4.042,4.042,0,0,0,.62-2.24,4.867,4.867,0,0,0-1.48-3.74,5.407,5.407,0,0,0-3.84-1.381,14.431,14.431,0,0,0-5.04.92,28.689,28.689,0,0,0-4.64,2.2,25.586,25.586,0,0,0,.54,3.68,10.252,10.252,0,0,1,.34,1.84,3.983,3.983,0,0,1-.34,1.561,2.58,2.58,0,0,1-1.5,1.279,1.622,1.622,0,0,1-1.5.061,1.715,1.715,0,0,1-.82-1.381,2.008,2.008,0,0,0-.94-1.18,7.591,7.591,0,0,0-2.1-1.02c-.267.268-.514.506-.74.721s-.407.387-.54.52a2.305,2.305,0,0,1-1.46.619,1.8,1.8,0,0,1-1.54-.74,3.82,3.82,0,0,0-.98-.8.939.939,0,0,1-.46-.92q0-1.321,2.2-1.32a11.058,11.058,0,0,1,1.56.119q1.159-.68,2.8-1.76t3.56-2.2v-.68q0-1.761.06-3.441t.1-3.24q-1.041.161-2.08.281a17.129,17.129,0,0,1-1.96.119,4.3,4.3,0,0,1-2.32-.619,4.163,4.163,0,0,1-1.52-1.6,4,4,0,0,1-.48-2.061.5.5,0,0,1,.8-.121,2.38,2.38,0,0,0,1.26,1.861,4.756,4.756,0,0,0,2.38.619,10.238,10.238,0,0,0,1.86-.2,21.976,21.976,0,0,0,2.14-.519q.08-1.642.2-2.921t.2-2.121q.12-1.16-.4-1.4a1.049,1.049,0,0,0-.6-.18,3.708,3.708,0,0,0-.68.02q-.441-.439,0-.8a5.575,5.575,0,0,1,1.52-.221,4.766,4.766,0,0,1,1.52.18,2.392,2.392,0,0,1,1.04.521,2.12,2.12,0,0,1,.66.879.851.851,0,0,1-.22.92,4.357,4.357,0,0,0-.7,1.641,21.978,21.978,0,0,0-.5,2.8,14.68,14.68,0,0,0,2.24-1.08q.439-.237,1.8.641a1.138,1.138,0,0,1,.54.92.94.94,0,0,1-.66.881,22.633,22.633,0,0,1-4.16,1.2q-.081,1.521-.12,3.2t-.04,3.479a36.691,36.691,0,0,1,5.06-2.26,15.2,15.2,0,0,1,5.14-.939,9.125,9.125,0,0,1,4.3.939,6.79,6.79,0,0,1,2.74,2.561,7.044,7.044,0,0,1,.96,3.66,6,6,0,0,1-.96,3.3,6.968,6.968,0,0,1-2.64,2.4A8.009,8.009,0,0,1,120.98,13565.682Zm-13.44-3.52q.96.721.96-.52,0-.4-.02-1.3t-.06-2.02q-.96.639-1.82,1.32t-1.54,1.279A11.945,11.945,0,0,1,107.54,13562.162Zm18.68-14.24a.556.556,0,0,1-.38-.24.5.5,0,0,1-.1-.4,11.272,11.272,0,0,1,1-.859,10.186,10.186,0,0,1,1.2-.82,2.741,2.741,0,0,0-1.06-.92,3.71,3.71,0,0,0-1.78-.4,7.982,7.982,0,0,0-3.48.66,12.391,12.391,0,0,0-2.52,1.622c-.427-.056-.614-.255-.56-.6a13.455,13.455,0,0,1,1.46-1.479,10.225,10.225,0,0,1,2.44-1.58,7.63,7.63,0,0,1,3.34-.7,6.633,6.633,0,0,1,4.12,1.16,3.341,3.341,0,0,1,1.52,2.68,1.36,1.36,0,0,1-.56,1.24,1.493,1.493,0,0,1-1.36.08,2.814,2.814,0,0,0-1.9-.119A6.333,6.333,0,0,0,126.22,13547.922Z" fill="#505050"/>
            <path id="Path_70" data-name="Path 70" d="M98.18,13593.967a1.572,1.572,0,0,1-1.4-.221,1.289,1.289,0,0,1-.5-1.1,1.472,1.472,0,0,1,.66-1.16,9.071,9.071,0,0,0,2.62-3.379,13.991,13.991,0,0,0,1.22-4.621.545.545,0,0,1,.84-.08c.053.268.1.547.14.84s.073.588.1.881h11.16v-2.6a4.222,4.222,0,0,0-.28-1.881.29.29,0,0,1,0-.439c.053-.107.173-.133.36-.08q.519.079,1.26.24l1.5.321c.506.1.906.2,1.2.278q.32.041.32.48a.4.4,0,0,1-.44.4,3.7,3.7,0,0,0-.86.18c-.28.094-.42.34-.42.74v2.359h11.36a.753.753,0,0,0,.56-.2,5.986,5.986,0,0,0,.62-.459q.42-.34.66-.541a.665.665,0,0,1,.84.041q.519.48,1.38,1.279t1.34,1.281a.75.75,0,0,1,.18.34.519.519,0,0,1-.06.42.839.839,0,0,1-.92.279,2.541,2.541,0,0,0-.9,0,3.32,3.32,0,0,0-.94.48c-.24.16-.587.395-1.04.7s-.92.635-1.4.98-.92.654-1.32.92-.667.453-.8.561c-.4,0-.6-.187-.6-.561.186-.266.453-.693.8-1.279s.693-1.179,1.04-1.781.586-1.02.72-1.26H101.9a14.908,14.908,0,0,1-.3,3.362,7.2,7.2,0,0,1-1.18,2.8A3.7,3.7,0,0,1,98.18,13593.967Zm7.6,22.32q-.76,0-.76-.561,0-.2.04-1.119c.026-.615.046-1.34.06-2.182s.033-1.691.06-2.559.04-1.633.04-2.3v-.98a5.2,5.2,0,0,0-.04-.7q-2.241,1.04-4.38,1.8t-4.02,1.317q-.561-.278-.28-.76,2.319-.958,5.16-2.3a53.386,53.386,0,0,0,5.8-3.221,39.559,39.559,0,0,0,5.64-4.359,20.868,20.868,0,0,1-3.88-4.641,46.572,46.572,0,0,1-4.88,4.66,39.932,39.932,0,0,1-5.52,3.859q-.641-.12-.48-.719,1.68-1.28,3.44-2.881t3.34-3.34a39.007,39.007,0,0,0,2.8-3.439,17.452,17.452,0,0,0,1.86-3.179,3.631,3.631,0,0,0,.36-1.222.748.748,0,0,1,.16-.541q.12-.079.4.041.56.281,1.52.859t1.52.98a.4.4,0,0,1,.16.561.42.42,0,0,1-.52.279,1.269,1.269,0,0,0-.7-.039,1.088,1.088,0,0,0-.58.52l-.36.48h6.48a1.136,1.136,0,0,0,.56-.16l1.24-1.16a.9.9,0,0,1,.38-.221c.093-.014.233.061.42.221.293.213.713.561,1.26,1.039s.953.854,1.22,1.121a.524.524,0,0,1,.12.68c-.107.213-.374.32-.8.32a1.982,1.982,0,0,0-1.08.219,3.892,3.892,0,0,0-.76.781,30.665,30.665,0,0,1-2.22,2.8,33.227,33.227,0,0,1-2.46,2.48,25.545,25.545,0,0,0,5.76,2.641,39.647,39.647,0,0,0,5.94,1.4q2.9.439,5.18.639a9.855,9.855,0,0,0-2,1.5,6.651,6.651,0,0,0-1.24,1.541q-2.081-.56-4.62-1.4a43.24,43.24,0,0,1-5.2-2.121,30.07,30.07,0,0,1-5.1-3.119,41.406,41.406,0,0,1-3.74,2.76q-1.9,1.242-3.86,2.281.279.158.54.3c.173.094.313.168.42.221H120.7a.593.593,0,0,0,.44-.16c.106-.107.24-.246.4-.42s.306-.326.44-.461q.24-.319.64-.039.439.24,1.26.8t1.22.881a.4.4,0,0,1-.12.722c-.107.052-.22.112-.34.179s-.234.127-.34.18a.573.573,0,0,0-.32.561c0,.639.013,1.34.04,2.1s.053,1.5.08,2.219.053,1.334.08,1.842.04.813.04.921q0,.318-.68.7a2.981,2.981,0,0,1-1.48.381c-.56,0-.84-.215-.84-.641v-1h-13.4v1.2c0,.213-.22.428-.66.641A3.132,3.132,0,0,1,105.78,13616.287Zm2.04-3.361h13.4v-6.318h-13.4Zm6.32-15.559a34.167,34.167,0,0,0,2.36-2.621,24.076,24.076,0,0,0,2.04-2.939h-7.72a2.909,2.909,0,0,1-.38.52q-.221.24-.42.48a16.018,16.018,0,0,0,1.9,2.5A19.932,19.932,0,0,0,114.14,13597.367Z" fill="#505050"/>
            <path id="Path_71" data-name="Path 71" d="M103.14,13662.439q-.84,0-.84-.68,0-.161.04-1.26t.08-2.82q.039-1.72.08-3.719t.08-4q.039-2,.04-3.641v-2.8a33.845,33.845,0,0,1-2.94,5.941,36.956,36.956,0,0,1-3.46,4.7.566.566,0,0,1-.44-.1.441.441,0,0,1-.2-.381,56.65,56.65,0,0,0,3.82-7.34,45.432,45.432,0,0,0,2.98-9.7H99.14a13.3,13.3,0,0,0-2.12.2l-.36-1.76a14.753,14.753,0,0,0,2.48.32h3.48v-6.721a3.9,3.9,0,0,0-.28-1.879.343.343,0,0,1,0-.441.46.46,0,0,1,.4-.08c.426.08,1,.2,1.72.34s1.306.287,1.76.422a.463.463,0,0,1,.32.479.487.487,0,0,1-.44.441,4.7,4.7,0,0,0-.86.158q-.42.12-.42.721v6.561h1.32a.593.593,0,0,0,.44-.16q.2-.24.62-.7t.58-.621a.476.476,0,0,1,.76-.039,8.422,8.422,0,0,1,.96.818c.373.361.693.66.96.9a.673.673,0,0,1,.22.68.441.441,0,0,1-.46.361h-5.4v3.119a12.642,12.642,0,0,1,1.64,1.061,12.1,12.1,0,0,1,1.62,1.459,4.508,4.508,0,0,1,1.02,1.682,2.348,2.348,0,0,1,.06,1.818,1.477,1.477,0,0,1-.94.9.784.784,0,0,1-.68-.061,1.565,1.565,0,0,1-.48-.9,18.5,18.5,0,0,0-.96-2.621,9.739,9.739,0,0,0-1.28-2.1v5.359q0,2.2.02,4.721t.06,4.8q.039,2.279.06,3.818t.02,1.781q0,.319-.58.639A2.552,2.552,0,0,1,103.14,13662.439Zm14.56,0a6.334,6.334,0,0,0-.86-1.8,2.541,2.541,0,0,0-1.2-.861,8.683,8.683,0,0,0-1.98-.379.53.53,0,0,1,.12-.84q.48.041,1.74.119t2.3.08a1.227,1.227,0,0,0,.88-.219.89.89,0,0,0,.2-.621v-5.6q-1,.8-2.4,1.82t-2.74,1.959q-1.341.94-2.3,1.5a1.021,1.021,0,0,0-.5.541,1.29,1.29,0,0,0,.1.7.683.683,0,0,1,.08.3.422.422,0,0,1-.2.3.459.459,0,0,1-.6-.039q-.24-.281-.76-.84c-.347-.372-.707-.754-1.08-1.141s-.68-.686-.92-.9a.431.431,0,0,1-.12-.4.456.456,0,0,1,.5-.18,3.3,3.3,0,0,0,1.26-.219q.8-.24,2.06-.76t2.68-1.182q1.419-.659,2.74-1.359t2.2-1.221v-7.359h-6.8a13.268,13.268,0,0,0-2.12.2l-.36-1.721a14.027,14.027,0,0,0,2.48.32h6.8v-3.561h-5.16a13.536,13.536,0,0,0-2.12.2l-.32-1.719a14.059,14.059,0,0,0,2.44.32h5.16v-3.521h-6.32a13.268,13.268,0,0,0-2.12.2l-.32-1.721a13.872,13.872,0,0,0,2.44.32h8.72q.36-.6.84-1.52t.9-1.92a9.6,9.6,0,0,0,.58-1.8,5.6,5.6,0,0,0,.18-1.18.506.506,0,0,1,.14-.42.36.36,0,0,1,.4,0,9.456,9.456,0,0,1,1.04.52q.639.36,1.26.721t.9.559c.186.107.24.295.16.561a.34.34,0,0,1-.52.24,1.709,1.709,0,0,0-.7-.08.906.906,0,0,0-.58.48,15.952,15.952,0,0,1-1.66,2.08q-.94,1-1.7,1.76h4.36a.593.593,0,0,0,.44-.16q.2-.24.6-.7t.56-.66q.279-.36.76-.041a12.4,12.4,0,0,1,1.12.84q.679.563,1.08.881a.654.654,0,0,1,.24.66c-.054.254-.187.379-.4.379H121.14v3.521h4.48a.6.6,0,0,0,.44-.16q.2-.24.6-.7c.266-.307.453-.525.56-.66.186-.24.44-.252.76-.039a12.4,12.4,0,0,1,1.12.84q.679.56,1.08.881a.651.651,0,0,1,.24.658.418.418,0,0,1-.44.381h-8.84v3.561h6.44a.593.593,0,0,0,.44-.16l1.36-1.361a.712.712,0,0,1,.32-.219c.08-.014.213.047.4.18q.439.281,1.14.84l1.1.881a.653.653,0,0,1,.24.66.418.418,0,0,1-.44.379H121.42a18.49,18.49,0,0,0,1.16,3.461,18.791,18.791,0,0,0,1.6,2.859,23.232,23.232,0,0,0,1.8-1.74,14.2,14.2,0,0,0,1.64-2.061,1.992,1.992,0,0,0,.42-1,.406.406,0,0,1,.26-.439c.106-.08.226-.053.36.08q.519.4,1.32,1.08t1.32,1.16a.37.37,0,0,1,.04.561.455.455,0,0,1-.56.2,1.6,1.6,0,0,0-.6-.2,1.118,1.118,0,0,0-.76.279,23.851,23.851,0,0,1-2.38,1.52q-1.221.683-2.34,1.24a17.047,17.047,0,0,0,3,2.98,20.294,20.294,0,0,0,3.14,2q1.539.779,2.66,1.26a6.362,6.362,0,0,0-2.1.92,5.628,5.628,0,0,0-1.38,1.24,25.6,25.6,0,0,1-3.2-2.84,23.871,23.871,0,0,1-3.3-4.34,21.56,21.56,0,0,1-2.38-5.74v1.561q0,1.479.04,3.18t.06,3.219q.02,1.521.06,2.561t.04,1.24a4.155,4.155,0,0,1-3.64,4.359Zm-2.12-10.959a.892.892,0,0,1-1.32-.6,12.458,12.458,0,0,0-1.38-2.721,7.822,7.822,0,0,0-2.06-2.16.624.624,0,0,1,.08-.439.478.478,0,0,1,.32-.24,11.985,11.985,0,0,1,2.86,1.34,5.387,5.387,0,0,1,1.9,1.9,2.4,2.4,0,0,1,.34,1.9A1.5,1.5,0,0,1,115.58,13651.48Zm2.16-18.439a.949.949,0,0,1-.66,0,1.1,1.1,0,0,1-.46-.641,16.37,16.37,0,0,0-1.28-2.621,7.521,7.521,0,0,0-2.08-2.26.566.566,0,0,1,.48-.719,16.176,16.176,0,0,1,2.74,1.42,4.759,4.759,0,0,1,1.94,2.139,2.174,2.174,0,0,1,.18,1.76A1.522,1.522,0,0,1,117.74,13633.041Z" fill="#505050"/>
            <path id="Path_72" data-name="Path 72" d="M112.7,13705.74a.665.665,0,0,1-.3-.52.641.641,0,0,1,.18-.521,25.328,25.328,0,0,0,4.98-1.439,18.366,18.366,0,0,0,4.58-2.641,12.657,12.657,0,0,0,3.34-3.979,11.174,11.174,0,0,0,1.26-5.381,14.22,14.22,0,0,0-1.48-6.721,10.609,10.609,0,0,0-4.1-4.318,12.24,12.24,0,0,0-6.1-1.561v2.48a29.306,29.306,0,0,1-.66,6.238,35.473,35.473,0,0,1-1.72,5.682,26.908,26.908,0,0,1-2.36,4.639,14.984,14.984,0,0,1-2.58,3.121,3.748,3.748,0,0,1-2.36,1.119,4.928,4.928,0,0,1-3.68-1.68,8.719,8.719,0,0,1-1.76-3.1,14.556,14.556,0,0,1-.68-4.781,13.7,13.7,0,0,1,1.12-5.318,16.872,16.872,0,0,1,3.2-4.941,16.217,16.217,0,0,1,4.94-3.639,14.488,14.488,0,0,1,6.38-1.381,16.445,16.445,0,0,1,5.92,1.041,14.3,14.3,0,0,1,4.74,2.939,13.268,13.268,0,0,1,3.14,4.539,14.818,14.818,0,0,1,1.12,5.84,11.93,11.93,0,0,1-1.5,6.1,13.764,13.764,0,0,1-3.98,4.34,19.343,19.343,0,0,1-5.52,2.7A26.426,26.426,0,0,1,112.7,13705.74Zm-7.44-7.361a3.208,3.208,0,0,0,2.04-1.02,12.666,12.666,0,0,0,2.2-2.8,27.147,27.147,0,0,0,1.98-4.041,30.246,30.246,0,0,0,1.44-4.721,22.605,22.605,0,0,0,.54-4.859v-2.2a12.06,12.06,0,0,0-5.92,2.26,13.172,13.172,0,0,0-4.06,4.82,14.273,14.273,0,0,0-1.46,6.479,9.334,9.334,0,0,0,.9,4.381A2.66,2.66,0,0,0,105.26,13698.379Z" fill="#505050"/>
            <path id="Path_73" data-name="Path 73" d="M96.86,13754.789a.487.487,0,0,1-.36-.24.624.624,0,0,1-.08-.439,15.262,15.262,0,0,0,3.76-4.141,14.827,14.827,0,0,0,1.82-5.039,37.343,37.343,0,0,0,.5-6.461c0-1.385-.02-2.453-.06-3.2a14.3,14.3,0,0,0-.16-1.66,3.346,3.346,0,0,0-.26-.859.415.415,0,0,1,.08-.439.379.379,0,0,1,.44-.041q.319.161.96.5t1.3.68q.66.34,1.06.58h17.72a.535.535,0,0,0,.44-.2c.133-.133.313-.334.54-.6s.433-.494.62-.682a.554.554,0,0,1,.76-.039q.319.2.82.58t.98.779q.48.4.72.641a.444.444,0,0,1,.18.4c-.014.16-.127.279-.34.359a3.237,3.237,0,0,1-.5.24,5.181,5.181,0,0,0-.54.24.461.461,0,0,0-.26.2,1.408,1.408,0,0,0-.06.52q0,1.242.08,2.641t.16,2.5q.08,1.1.08,1.5t-.8.74a3.98,3.98,0,0,1-1.56.34q-.761,0-.76-.6v-1.439H105.06a19.138,19.138,0,0,1-1.38,5.6,12.815,12.815,0,0,1-2.72,4A19.416,19.416,0,0,1,96.86,13754.789Zm4.04-24.16-.32-1.719a14.059,14.059,0,0,0,2.44.32H113.1v-4.281H98.86a13.268,13.268,0,0,0-2.12.2l-.32-1.721a13.872,13.872,0,0,0,2.44.32H113.1v-2.721a4.206,4.206,0,0,0-.28-1.879.292.292,0,0,1,0-.441.46.46,0,0,1,.4-.08l1.16.24q.759.161,1.54.34t1.22.3q.319.041.32.48a.4.4,0,0,1-.44.4,3.7,3.7,0,0,0-.86.18c-.28.094-.42.34-.42.74v2.439h11.08a.609.609,0,0,0,.44-.2l.52-.52c.266-.266.526-.533.78-.8s.42-.441.5-.521a.468.468,0,0,1,.72-.039q.2.161.74.641c.36.318.72.633,1.08.939a6.194,6.194,0,0,1,.7.66q.4.36.28.7a.444.444,0,0,1-.44.34h-16.4v4.281h7.72a.574.574,0,0,0,.4-.2c.08-.08.226-.246.44-.5s.433-.5.66-.74a5.292,5.292,0,0,0,.42-.479.564.564,0,0,1,.72-.041,7.017,7.017,0,0,1,.72.6c.32.295.64.58.96.861a5.9,5.9,0,0,1,.64.619.786.786,0,0,1,.26.74.491.491,0,0,1-.54.34H103.02A13.536,13.536,0,0,0,100.9,13730.629Zm4.24,10.32h7.96v-5.719h-7.88v3.4q0,.6-.02,1.182T105.14,13740.949Zm10.6,0h8.4v-5.719h-8.4Z" fill="#505050"/>
          </g>
        </g>
        <g id="Group_234" data-name="Group 234">
          <line id="Line_37" data-name="Line 37" y2="227" transform="translate(80.5 13534)" fill="none" stroke="#505050" stroke-miterlimit="10" stroke-width="1"/>
          <line id="Line_38" data-name="Line 38" y2="227" transform="translate(148.5 13534)" fill="none" stroke="#505050" stroke-miterlimit="10" stroke-width="1"/>
        </g>
      </g>
      <text id="Voice" transform="translate(111.91 13807.117)" fill="#505050" font-size="50" font-family="EmilyAustin, Emily Austin" letter-spacing="0.074em"><tspan x="-41.3" y="0">Voice</tspan></text>
    </g>
  </g>
</svg>
