<svg xmlns="http://www.w3.org/2000/svg" width="40.5" height="40.5" viewBox="0 0 40.5 40.5">
  <g id="グループ_3110" data-name="グループ 3110" transform="translate(-329.75 -19.75)">
    <path id="楕円形_14" data-name="楕円形 14" d="M20-.25a20.255,20.255,0,0,1,7.882,38.909A20.255,20.255,0,0,1,12.118,1.341,20.123,20.123,0,0,1,20-.25Zm0,40A19.755,19.755,0,0,0,27.688,1.8,19.755,19.755,0,0,0,12.312,38.2,19.626,19.626,0,0,0,20,39.75Z" transform="translate(330 20)" fill="#505050"/>
    <g id="グループ_3124" data-name="グループ 3124" transform="translate(3.5 -50.5)">
      <path id="線_52" data-name="線 52" d="M17.823,18.177l-18-18L.177-.177l18,18Z" transform="translate(337.5 81.5)" fill="#707070"/>
      <path id="線_53" data-name="線 53" d="M.177,18.177l-.354-.354,18-18,.354.354Z" transform="translate(337.5 81.5)" fill="#707070"/>
    </g>
  </g>
</svg>
