<svg xmlns="http://www.w3.org/2000/svg" width="25.901" height="131.31" viewBox="0 0 25.901 131.31">
  <g id="feature01_sp" transform="translate(0.437 0.004)">
    <path id="パス_6964" data-name="パス 6964" d="M.572,0A.263.263,0,0,1,.341-.11.413.413,0,0,1,.264-.352.449.449,0,0,1,.341-.616a.263.263,0,0,1,.231-.11,4.51,4.51,0,0,0,1.617-.22q.539-.22.539-1.122v-11.88q0-.836-.462-1.067a4.474,4.474,0,0,0-1.76-.231.271.271,0,0,1-.22-.11A.409.409,0,0,1,.2-15.62a.379.379,0,0,1,.088-.242.271.271,0,0,1,.22-.11q.176,0,1.848.033t4.62.033q2.816,0,4.532-.033t1.87-.033q.572,0,.594.528,0,.2.033.682t.055,1.045q.022.561.044.99t.022.517q0,.242-.308.308a.334.334,0,0,1-.4-.22q-.154-.374-.429-.891a5.78,5.78,0,0,0-.693-1.012,3.594,3.594,0,0,0-1.012-.825,2.9,2.9,0,0,0-1.43-.33H5.148q-.462,0-.462.44v5.808a.253.253,0,0,0,.286.286H6.908A2.428,2.428,0,0,0,8.327-9a2.3,2.3,0,0,0,.737-.825q.242-.473.4-.847a.426.426,0,0,1,.4-.308.272.272,0,0,1,.308.308q0,.264-.022,1.012T10.12-8.25q0,.418.011.957t.022.968q.011.429.011.605a.272.272,0,0,1-.308.308.355.355,0,0,1-.242-.077A.673.673,0,0,1,9.46-5.7q-.154-.4-.4-.9a2.4,2.4,0,0,0-.737-.88,2.319,2.319,0,0,0-1.419-.374H4.972a.253.253,0,0,0-.286.286v5.5q0,.9.539,1.122a5.281,5.281,0,0,0,1.815.22.263.263,0,0,1,.231.11.449.449,0,0,1,.077.264.413.413,0,0,1-.077.242A.263.263,0,0,1,7.04,0Q6.82,0,5.962-.022T3.7-.044q-1.386,0-2.134.022T.572,0ZM21.78.264a4.891,4.891,0,0,1-2.519-.638A4.428,4.428,0,0,1,17.578-2.1a5.084,5.084,0,0,1-.594-2.475,5.334,5.334,0,0,1,.341-1.881,5.492,5.492,0,0,1,.968-1.65,4.819,4.819,0,0,1,1.485-1.177,4.038,4.038,0,0,1,1.87-.44,3.527,3.527,0,0,1,1.848.462,4.174,4.174,0,0,1,1.276,1.177,5.3,5.3,0,0,1,.748,1.5,4.838,4.838,0,0,1,.242,1.419q0,.33-.4.33H19.448a.426.426,0,0,0-.286.066.341.341,0,0,0-.066.242,5.434,5.434,0,0,0,.4,2.288,2.492,2.492,0,0,0,1.056,1.188,2.992,2.992,0,0,0,1.43.352A3.161,3.161,0,0,0,23.364-.99a3.881,3.881,0,0,0,.99-.66,5.886,5.886,0,0,0,.616-.66A.335.335,0,0,1,25.5-2.4a.317.317,0,0,1,.11.484,5.157,5.157,0,0,1-.715.891,4.541,4.541,0,0,1-1.265.9A4.093,4.093,0,0,1,21.78.264ZM19.514-5.7h3.674q.418,0,.418-.374a5.2,5.2,0,0,0-.176-1.3,2.626,2.626,0,0,0-.616-1.155A1.572,1.572,0,0,0,21.6-9a1.605,1.605,0,0,0-1.133.44,3.314,3.314,0,0,0-.77,1.122,7.125,7.125,0,0,0-.451,1.452Q19.184-5.7,19.514-5.7ZM33.682.264a2.817,2.817,0,0,1-1.331-.33,2.612,2.612,0,0,1-1-.913,2.451,2.451,0,0,1-.374-1.353,2.644,2.644,0,0,1,.726-1.9,4.51,4.51,0,0,1,1.936-1.144A8.744,8.744,0,0,1,36.3-5.764q.242,0,.242-.22V-6.6a2.91,2.91,0,0,0-.451-1.727A1.49,1.49,0,0,0,34.8-8.954a1.959,1.959,0,0,0-.957.176q-.3.176-.121.594a.948.948,0,0,1-.077,1.067,1.191,1.191,0,0,1-.979.451A1,1,0,0,1,31.889-7a1.088,1.088,0,0,1-.3-.748,1.408,1.408,0,0,1,.4-.935,2.929,2.929,0,0,1,1.144-.748,4.823,4.823,0,0,1,1.782-.3,3.732,3.732,0,0,1,2.651.792,2.906,2.906,0,0,1,.825,2.2v4.268a2.262,2.262,0,0,0,.2,1.089.568.568,0,0,0,.484.341.6.6,0,0,0,.44-.176q.22-.22.484.022.176.176,0,.44a2.7,2.7,0,0,1-.583.616,1.54,1.54,0,0,1-.979.286,1.651,1.651,0,0,1-.968-.308,2.161,2.161,0,0,1-.7-.858q-.132-.264-.33-.022a2.965,2.965,0,0,1-.572.55,3.876,3.876,0,0,1-.946.528A3.292,3.292,0,0,1,33.682.264Zm.99-1.188a1.583,1.583,0,0,0,1.012-.33,2.211,2.211,0,0,0,.638-.792,2.049,2.049,0,0,0,.22-.88V-4.774q0-.308-.286-.308a4.4,4.4,0,0,0-2.354.55,2.008,2.008,0,0,0-.88,1.848,1.825,1.825,0,0,0,.308,1.155,1.38,1.38,0,0,0,.693.5A2.44,2.44,0,0,0,34.672-.924ZM48,.264a2.908,2.908,0,0,1-.979-.176A1.833,1.833,0,0,1,46.2-.5a1.752,1.752,0,0,1-.33-1.133v-6.82a.156.156,0,0,0-.176-.176H44.528a.272.272,0,0,1-.308-.308v-.132q0-.242.308-.308a2.5,2.5,0,0,0,1.529-1.177,5.906,5.906,0,0,0,.649-2.277.272.272,0,0,1,.308-.308h.33q.33,0,.33.308v3.19a.156.156,0,0,0,.176.176h2.2a.282.282,0,0,1,.22.1.311.311,0,0,1,.088.209v.22a.272.272,0,0,1-.308.308h-2.2a.156.156,0,0,0-.176.176v6.16q0,1.188,1.144,1.188a1.248,1.248,0,0,0,.9-.363,3.106,3.106,0,0,0,.594-.781q.11-.176.242-.176a.583.583,0,0,1,.286.088q.264.154.11.484a4.4,4.4,0,0,1-.561.968,3.063,3.063,0,0,1-.935.814A2.875,2.875,0,0,1,48,.264Zm11.77,0a2.765,2.765,0,0,1-2.046-.77,3.04,3.04,0,0,1-.77-2.244V-7.634a2.076,2.076,0,0,0-.088-.682.447.447,0,0,0-.4-.286l-.352-.044q-.176-.022-.308-.044a.343.343,0,0,1-.286-.374.413.413,0,0,1,.077-.242.263.263,0,0,1,.231-.11q.066,0,.4-.011t.759-.011q.429,0,.792-.011t.473-.011q.506,0,.506.528V-3.08a2.029,2.029,0,0,0,.517,1.529,1.905,1.905,0,0,0,1.375.5,1.817,1.817,0,0,0,1.562-.682,2.586,2.586,0,0,0,.506-1.584V-7.634a2.076,2.076,0,0,0-.088-.682.447.447,0,0,0-.4-.286l-.352-.044q-.176-.022-.308-.044a.343.343,0,0,1-.286-.374.413.413,0,0,1,.077-.242.263.263,0,0,1,.231-.11q.066,0,.4-.011t.759-.011q.429,0,.792-.011t.473-.011q.506,0,.506.528v7.15a1.49,1.49,0,0,0,.1.671.647.647,0,0,0,.385.253l.231.044a1.2,1.2,0,0,1,.231.066.33.33,0,0,1,.286.352.332.332,0,0,1-.308.374H64.9q-.462,0-.946.011T63.294,0q-.484,0-.484-.462A2.521,2.521,0,0,1,62.777-.8q-.011-.231-.011-.363-.044-.308-.264-.044-.154.2-.495.55a3.492,3.492,0,0,1-.88.638A2.866,2.866,0,0,1,59.774.264ZM70.488,0Q70.2,0,70.2-.352T70.488-.7a2.059,2.059,0,0,0,1.166-.242,1,1,0,0,0,.33-.858v-5.83a2.076,2.076,0,0,0-.088-.682.379.379,0,0,0-.352-.264q-.176-.022-.605-.066t-.583-.066q-.286-.022-.286-.352a.332.332,0,0,1,.308-.374h.462q.4,0,.891-.011t.913-.011h.55q.484,0,.484.506V-7.81a.086.086,0,0,0,.066.088q.066.022.132-.066a9.7,9.7,0,0,1,.8-.88A4.534,4.534,0,0,1,75.7-9.416a2.6,2.6,0,0,1,1.254-.308,2.344,2.344,0,0,1,1.551.44,1.431,1.431,0,0,1,.517,1.144,1.363,1.363,0,0,1-.3.8,1.031,1.031,0,0,1-.891.407,1.049,1.049,0,0,1-.924-.352,1.125,1.125,0,0,1-.242-.594v-.2a2.13,2.13,0,0,0-.055-.561q-.055-.187-.385-.187a1.344,1.344,0,0,0-.847.352,3.924,3.924,0,0,0-.792.913,5.352,5.352,0,0,0-.583,1.221,4.027,4.027,0,0,0-.22,1.276v3.212a.965.965,0,0,0,.407.891A2.144,2.144,0,0,0,75.328-.7q.308,0,.308.352T75.328,0q-.22,0-.781-.022T72.886-.044q-.924,0-1.54.022T70.488,0ZM88.506.264a4.891,4.891,0,0,1-2.519-.638A4.428,4.428,0,0,1,84.3-2.1a5.084,5.084,0,0,1-.594-2.475,5.334,5.334,0,0,1,.341-1.881,5.492,5.492,0,0,1,.968-1.65A4.819,4.819,0,0,1,86.5-9.284a4.038,4.038,0,0,1,1.87-.44,3.527,3.527,0,0,1,1.848.462A4.174,4.174,0,0,1,91.5-8.085a5.3,5.3,0,0,1,.748,1.5,4.838,4.838,0,0,1,.242,1.419q0,.33-.4.33H86.174a.426.426,0,0,0-.286.066.341.341,0,0,0-.066.242,5.434,5.434,0,0,0,.4,2.288,2.492,2.492,0,0,0,1.056,1.188A2.992,2.992,0,0,0,88.7-.7,3.161,3.161,0,0,0,90.09-.99a3.881,3.881,0,0,0,.99-.66,5.886,5.886,0,0,0,.616-.66.335.335,0,0,1,.528-.088.317.317,0,0,1,.11.484,5.157,5.157,0,0,1-.715.891,4.541,4.541,0,0,1-1.265.9A4.093,4.093,0,0,1,88.506.264ZM86.24-5.7h3.674q.418,0,.418-.374a5.2,5.2,0,0,0-.176-1.3,2.626,2.626,0,0,0-.616-1.155A1.572,1.572,0,0,0,88.33-9a1.605,1.605,0,0,0-1.133.44,3.314,3.314,0,0,0-.77,1.122,7.124,7.124,0,0,0-.451,1.452Q85.91-5.7,86.24-5.7Z" transform="translate(9.228 -0.202) rotate(90)" fill="#505050"/>
    <line id="線_45" data-name="線 45" y2="131.097" transform="translate(0 0.208)" fill="none" stroke="#505050" stroke-miterlimit="10" stroke-width="0.873"/>
    <path id="パス_6965" data-name="パス 6965" d="M6.754.264A4.314,4.314,0,0,1,4.07-.682,6.569,6.569,0,0,1,2.079-3.465,11.865,11.865,0,0,1,1.32-7.986a11.865,11.865,0,0,1,.759-4.521A6.569,6.569,0,0,1,4.07-15.29a4.314,4.314,0,0,1,2.684-.946,4.314,4.314,0,0,1,2.684.946,6.569,6.569,0,0,1,1.991,2.783,11.865,11.865,0,0,1,.759,4.521,11.865,11.865,0,0,1-.759,4.521A6.569,6.569,0,0,1,9.438-.682,4.314,4.314,0,0,1,6.754.264Zm0-.968a2.305,2.305,0,0,0,1.969-.935A6.04,6.04,0,0,0,9.7-4.213a22.145,22.145,0,0,0,.286-3.773A22.145,22.145,0,0,0,9.7-11.759a6.04,6.04,0,0,0-.979-2.574,2.305,2.305,0,0,0-1.969-.935,2.312,2.312,0,0,0-1.958.935,5.96,5.96,0,0,0-.99,2.585A22.193,22.193,0,0,0,3.52-7.986a22.193,22.193,0,0,0,.286,3.762A5.96,5.96,0,0,0,4.8-1.639,2.312,2.312,0,0,0,6.754-.7ZM19.118,0a.486.486,0,0,1-.187-.4.516.516,0,0,1,.187-.374q.726-.088,1.331-.2a2.346,2.346,0,0,0,.968-.374.893.893,0,0,0,.363-.77V-13.486a1.479,1.479,0,0,0-.242-.924q-.242-.308-1.21-.308h-.946a.486.486,0,0,1-.187-.4.516.516,0,0,1,.187-.374q.418-.022,1.012-.088a10.181,10.181,0,0,0,1.166-.2,3.521,3.521,0,0,0,.924-.33,1.5,1.5,0,0,1,.7-.132.9.9,0,0,1,.385.077.261.261,0,0,1,.165.253V-2.112a.96.96,0,0,0,.737,1,9.371,9.371,0,0,0,1.837.341.479.479,0,0,1,.176.374.547.547,0,0,1-.176.4Z" transform="translate(9.228 95.798) rotate(90)" fill="#fff"/>
  </g>
</svg>
