<svg xmlns="http://www.w3.org/2000/svg" width="40.029" height="204.768" viewBox="0 0 40.029 204.768">
  <g id="feature01" transform="translate(0.437 -0.324)">
    <path id="パス_6824" data-name="パス 6824" d="M.936,0A.431.431,0,0,1,.558-.18a.676.676,0,0,1-.126-.4.734.734,0,0,1,.126-.432.431.431,0,0,1,.378-.18,7.38,7.38,0,0,0,2.646-.36q.882-.36.882-1.836v-19.44q0-1.368-.756-1.746a7.321,7.321,0,0,0-2.88-.378.443.443,0,0,1-.36-.18.67.67,0,0,1-.144-.432.62.62,0,0,1,.144-.4.443.443,0,0,1,.36-.18q.288,0,3.024.054t7.56.054q4.608,0,7.416-.054t3.06-.054q.936,0,.972.864,0,.324.054,1.116t.09,1.71q.036.918.072,1.62t.036.846q0,.4-.5.5a.546.546,0,0,1-.648-.36q-.252-.612-.7-1.458a9.458,9.458,0,0,0-1.134-1.656,5.882,5.882,0,0,0-1.656-1.35,4.75,4.75,0,0,0-2.34-.54h-7.7q-.756,0-.756.72v9.5a.414.414,0,0,0,.468.468H11.3a3.973,3.973,0,0,0,2.322-.576,3.769,3.769,0,0,0,1.206-1.35q.4-.774.648-1.386a.7.7,0,0,1,.648-.5.445.445,0,0,1,.5.5q0,.432-.036,1.656t-.036,2.3q0,.684.018,1.566t.036,1.584q.018.7.018.99a.445.445,0,0,1-.5.5.581.581,0,0,1-.4-.126,1.1,1.1,0,0,1-.252-.342q-.252-.648-.648-1.476a3.922,3.922,0,0,0-1.206-1.44,3.8,3.8,0,0,0-2.322-.612H8.136a.414.414,0,0,0-.468.468v9q0,1.476.882,1.836a8.642,8.642,0,0,0,2.97.36.431.431,0,0,1,.378.18.734.734,0,0,1,.126.432.676.676,0,0,1-.126.4A.431.431,0,0,1,11.52,0q-.36,0-1.764-.036T6.048-.072q-2.268,0-3.492.036T.936,0Zm34.7.432A8,8,0,0,1,31.518-.612a7.246,7.246,0,0,1-2.754-2.826,8.319,8.319,0,0,1-.972-4.05,8.729,8.729,0,0,1,.558-3.078,8.987,8.987,0,0,1,1.584-2.7,7.885,7.885,0,0,1,2.43-1.926,6.607,6.607,0,0,1,3.06-.72,5.771,5.771,0,0,1,3.024.756,6.83,6.83,0,0,1,2.088,1.926,8.668,8.668,0,0,1,1.224,2.448,7.916,7.916,0,0,1,.4,2.322q0,.54-.648.54H31.824a.7.7,0,0,0-.468.108.559.559,0,0,0-.108.4A8.891,8.891,0,0,0,31.9-3.672a4.077,4.077,0,0,0,1.728,1.944,4.9,4.9,0,0,0,2.34.576,5.173,5.173,0,0,0,2.268-.468,6.35,6.35,0,0,0,1.62-1.08A9.631,9.631,0,0,0,40.86-3.78a.547.547,0,0,1,.864-.144.518.518,0,0,1,.18.792,8.438,8.438,0,0,1-1.17,1.458A7.431,7.431,0,0,1,38.664-.2,6.7,6.7,0,0,1,35.64.432ZM31.932-9.324h6.012q.684,0,.684-.612a8.5,8.5,0,0,0-.288-2.124,4.3,4.3,0,0,0-1.008-1.89,2.572,2.572,0,0,0-1.98-.774A2.627,2.627,0,0,0,33.5-14a5.422,5.422,0,0,0-1.26,1.836A11.659,11.659,0,0,0,31.5-9.792Q31.392-9.324,31.932-9.324ZM55.116.432a4.61,4.61,0,0,1-2.178-.54A4.275,4.275,0,0,1,51.3-1.6a4.01,4.01,0,0,1-.612-2.214A4.326,4.326,0,0,1,51.876-6.93,7.38,7.38,0,0,1,55.044-8.8a14.308,14.308,0,0,1,4.356-.63q.4,0,.4-.36V-10.8a4.762,4.762,0,0,0-.738-2.826,2.438,2.438,0,0,0-2.106-1.026,3.206,3.206,0,0,0-1.566.288q-.486.288-.2.972a1.552,1.552,0,0,1-.126,1.746,1.949,1.949,0,0,1-1.6.738,1.637,1.637,0,0,1-1.278-.54,1.78,1.78,0,0,1-.486-1.224,2.3,2.3,0,0,1,.648-1.53,4.793,4.793,0,0,1,1.872-1.224,7.892,7.892,0,0,1,2.916-.486,6.107,6.107,0,0,1,4.338,1.3,4.755,4.755,0,0,1,1.35,3.6v6.984a3.7,3.7,0,0,0,.324,1.782.93.93,0,0,0,.792.558.977.977,0,0,0,.72-.288q.36-.36.792.036.288.288,0,.72a4.409,4.409,0,0,1-.954,1.008,2.519,2.519,0,0,1-1.6.468,2.7,2.7,0,0,1-1.584-.5,3.536,3.536,0,0,1-1.152-1.4q-.216-.432-.54-.036a4.852,4.852,0,0,1-.936.9,6.342,6.342,0,0,1-1.548.864A5.386,5.386,0,0,1,55.116.432Zm1.62-1.944a2.59,2.59,0,0,0,1.656-.54,3.619,3.619,0,0,0,1.044-1.3,3.353,3.353,0,0,0,.36-1.44V-7.812q0-.5-.468-.5a7.206,7.206,0,0,0-3.852.9,3.286,3.286,0,0,0-1.44,3.024,2.986,2.986,0,0,0,.5,1.89,2.258,2.258,0,0,0,1.134.81A3.993,3.993,0,0,0,56.736-1.512ZM78.552.432a4.759,4.759,0,0,1-1.6-.288A3,3,0,0,1,75.6-.81a2.867,2.867,0,0,1-.54-1.854v-11.16a.255.255,0,0,0-.288-.288H72.864a.445.445,0,0,1-.5-.5v-.216q0-.4.5-.5a4.1,4.1,0,0,0,2.5-1.926,9.663,9.663,0,0,0,1.062-3.726.445.445,0,0,1,.5-.5h.54q.54,0,.54.5v5.22a.255.255,0,0,0,.288.288h3.6a.462.462,0,0,1,.36.162.509.509,0,0,1,.144.342v.36a.445.445,0,0,1-.5.5H78.3a.255.255,0,0,0-.288.288v10.08q0,1.944,1.872,1.944a2.043,2.043,0,0,0,1.476-.594,5.083,5.083,0,0,0,.972-1.278q.18-.288.4-.288a.954.954,0,0,1,.468.144q.432.252.18.792a7.194,7.194,0,0,1-.918,1.584,5.012,5.012,0,0,1-1.53,1.332A4.7,4.7,0,0,1,78.552.432Zm19.26,0a4.525,4.525,0,0,1-3.348-1.26A4.975,4.975,0,0,1,93.2-4.5v-7.992a3.4,3.4,0,0,0-.144-1.116.732.732,0,0,0-.648-.468l-.576-.072q-.288-.036-.5-.072a.561.561,0,0,1-.468-.612.676.676,0,0,1,.126-.4.431.431,0,0,1,.378-.18q.108,0,.648-.018t1.242-.018q.7,0,1.3-.018t.774-.018q.828,0,.828.864V-5.04A3.319,3.319,0,0,0,97-2.538a3.118,3.118,0,0,0,2.25.81,2.974,2.974,0,0,0,2.556-1.116,4.232,4.232,0,0,0,.828-2.592v-7.056a3.4,3.4,0,0,0-.144-1.116.732.732,0,0,0-.648-.468l-.576-.072q-.288-.036-.5-.072a.561.561,0,0,1-.468-.612.676.676,0,0,1,.126-.4.431.431,0,0,1,.378-.18q.108,0,.648-.018t1.242-.018q.7,0,1.3-.018t.774-.018q.828,0,.828.864v11.7a2.438,2.438,0,0,0,.162,1.1,1.059,1.059,0,0,0,.63.414q.18.036.378.072a1.958,1.958,0,0,1,.378.108.54.54,0,0,1,.468.576.543.543,0,0,1-.5.612h-.9q-.756,0-1.548.018T103.572,0q-.792,0-.792-.756a4.124,4.124,0,0,1-.054-.558q-.018-.378-.018-.594-.072-.5-.432-.072-.252.324-.81.9a5.715,5.715,0,0,1-1.44,1.044A4.69,4.69,0,0,1,97.812.432ZM115.344,0q-.468,0-.468-.576t.468-.576a3.369,3.369,0,0,0,1.908-.4,1.632,1.632,0,0,0,.54-1.4v-9.54a3.4,3.4,0,0,0-.144-1.116.62.62,0,0,0-.576-.432q-.288-.036-.99-.108t-.954-.108q-.468-.036-.468-.576a.543.543,0,0,1,.5-.612h.756q.648,0,1.458-.018t1.494-.018h.9q.792,0,.792.828v1.872a.141.141,0,0,0,.108.144q.108.036.216-.108a15.882,15.882,0,0,1,1.314-1.44,7.419,7.419,0,0,1,1.674-1.224,4.259,4.259,0,0,1,2.052-.5,3.835,3.835,0,0,1,2.538.72,2.342,2.342,0,0,1,.846,1.872,2.23,2.23,0,0,1-.486,1.314,1.688,1.688,0,0,1-1.458.666,1.716,1.716,0,0,1-1.512-.576,1.841,1.841,0,0,1-.4-.972v-.324a3.486,3.486,0,0,0-.09-.918q-.09-.306-.63-.306a2.2,2.2,0,0,0-1.386.576,6.422,6.422,0,0,0-1.3,1.494,8.758,8.758,0,0,0-.954,2,6.59,6.59,0,0,0-.36,2.088v5.256a1.578,1.578,0,0,0,.666,1.458,3.508,3.508,0,0,0,1.854.414q.5,0,.5.576t-.5.576q-.36,0-1.278-.036t-2.718-.036q-1.512,0-2.52.036T115.344,0Zm29.484.432a8,8,0,0,1-4.122-1.044,7.246,7.246,0,0,1-2.754-2.826,8.319,8.319,0,0,1-.972-4.05,8.729,8.729,0,0,1,.558-3.078,8.986,8.986,0,0,1,1.584-2.7,7.885,7.885,0,0,1,2.43-1.926,6.607,6.607,0,0,1,3.06-.72,5.771,5.771,0,0,1,3.024.756,6.83,6.83,0,0,1,2.088,1.926,8.668,8.668,0,0,1,1.224,2.448,7.916,7.916,0,0,1,.4,2.322q0,.54-.648.54h-9.684a.7.7,0,0,0-.468.108.559.559,0,0,0-.108.4,8.891,8.891,0,0,0,.648,3.744,4.077,4.077,0,0,0,1.728,1.944,4.9,4.9,0,0,0,2.34.576,5.173,5.173,0,0,0,2.268-.468,6.35,6.35,0,0,0,1.62-1.08,9.631,9.631,0,0,0,1.008-1.08.547.547,0,0,1,.864-.144.518.518,0,0,1,.18.792,8.439,8.439,0,0,1-1.17,1.458A7.431,7.431,0,0,1,147.852-.2,6.7,6.7,0,0,1,144.828.432ZM141.12-9.324h6.012q.684,0,.684-.612a8.5,8.5,0,0,0-.288-2.124,4.3,4.3,0,0,0-1.008-1.89,2.572,2.572,0,0,0-1.98-.774,2.627,2.627,0,0,0-1.854.72,5.422,5.422,0,0,0-1.26,1.836,11.659,11.659,0,0,0-.738,2.376Q140.58-9.324,141.12-9.324ZM169.2.432a7.059,7.059,0,0,1-4.392-1.548A10.748,10.748,0,0,1,161.55-5.67a19.415,19.415,0,0,1-1.242-7.4,19.415,19.415,0,0,1,1.242-7.4,10.748,10.748,0,0,1,3.258-4.554,7.059,7.059,0,0,1,4.392-1.548,7.059,7.059,0,0,1,4.392,1.548,10.748,10.748,0,0,1,3.258,4.554,19.415,19.415,0,0,1,1.242,7.4,19.415,19.415,0,0,1-1.242,7.4,10.748,10.748,0,0,1-3.258,4.554A7.059,7.059,0,0,1,169.2.432Zm0-1.584a3.772,3.772,0,0,0,3.222-1.53,9.884,9.884,0,0,0,1.6-4.212,36.238,36.238,0,0,0,.468-6.174,36.238,36.238,0,0,0-.468-6.174,9.884,9.884,0,0,0-1.6-4.212,3.772,3.772,0,0,0-3.222-1.53,3.784,3.784,0,0,0-3.2,1.53,9.753,9.753,0,0,0-1.62,4.23,36.315,36.315,0,0,0-.468,6.156,36.315,36.315,0,0,0,.468,6.156A9.753,9.753,0,0,0,166-2.682,3.784,3.784,0,0,0,169.2-1.152ZM189.432,0a.8.8,0,0,1-.306-.648.844.844,0,0,1,.306-.612q1.188-.144,2.178-.324a3.839,3.839,0,0,0,1.584-.612,1.461,1.461,0,0,0,.594-1.26V-22.068a2.421,2.421,0,0,0-.4-1.512q-.4-.5-1.98-.5h-1.548a.8.8,0,0,1-.306-.648.844.844,0,0,1,.306-.612q.684-.036,1.656-.144a16.66,16.66,0,0,0,1.908-.324,5.762,5.762,0,0,0,1.512-.54,2.457,2.457,0,0,1,1.152-.216,1.476,1.476,0,0,1,.63.126.427.427,0,0,1,.27.414V-3.456A1.571,1.571,0,0,0,198.2-1.818a15.335,15.335,0,0,0,3.006.558.784.784,0,0,1,.288.612A.9.9,0,0,1,201.2,0Z" transform="translate(13.024 0) rotate(90)" fill="#505050"/>
    <line id="線_45" data-name="線 45" y2="204.767" transform="translate(0 0.325)" fill="none" stroke="#505050" stroke-miterlimit="10" stroke-width="0.873"/>
  </g>
</svg>
