<svg xmlns="http://www.w3.org/2000/svg" width="400.96" height="108.797" viewBox="0 0 400.96 108.797">
  <path id="パス_6823" data-name="パス 6823" d="M-163.021-11.7a3.826,3.826,0,0,1-1.921,3.493c-2.1.7-2.27,3.318-4.89,4.366-1.4.7-3.318,3.143-4.54,3.143-1.4,0-2.62,2.445-4.366,2.969-1.921.349-4.017,2.445-5.763,2.445-1.222,0-1.572-1.4-1.572-2.27,0-4.017,4.017-6.287,5.239-9.78.873-2.62,3.667-4.366,6.112-5.588,1.746-1.048,4.54-3.143,6.636-3.143C-166.514-16.066-163.021-13.272-163.021-11.7Zm59.9-6.461c0,1.048-1.222,2.794-1.572,3.842-2.62,5.938-7.509,5.414-10.653,9.43-1.572,2.1-2.969,1.921-5.064,3.143-3.842,2.62-6.985,2.794-11.526,2.794-4.191,0-10.129-4.191-13.971-6.287A18.578,18.578,0,0,1-151.32-10.3l-.524-1.048a1.05,1.05,0,0,1-.175-.7.642.642,0,0,1,.175-.524c1.222-2.445,6.461-6.636,7.859-8.382,1.746-2.445,4.366-3.318,6.636-6.461a1.527,1.527,0,0,1,1.572-.873,9.509,9.509,0,0,1,5.239,2.27,17.3,17.3,0,0,0,9.43,3.842,26.453,26.453,0,0,1,7.335,1.746,27.39,27.39,0,0,0,6.461.873C-105.916-19.559-103.121-19.559-103.121-18.162Zm5.239-26.894c0,1.921-.7,3.842-.7,5.763,0,1.222.175,3.493.175,5.588s-.175,4.191-.7,5.064c-.524.7-.349,1.921-1.222,2.445a5.158,5.158,0,0,1-2.27.349c-1.222,0-2.445-.524-3.493-.524-1.572,0-2.794.873-4.366.873a7.564,7.564,0,0,1-.873-.175c-2.1-1.048-4.89-.524-7.335-1.222-2.794-1.048-10.478-4.54-10.478-8.033a2.872,2.872,0,0,1,1.4-2.1c2.1-1.921,2.794-4.89,5.064-6.985,2.1-1.746,3.667-4.366,5.938-5.938,2.1-1.222,6.287-5.064,7.509-7.16.873-1.4,3.667-5.938,5.239-5.938,1.222,0,5.239,8.557,5.239,10.129C-98.756-50.295-97.882-47.85-97.882-45.056ZM-108.36-68.98c0,.873-2.445,2.794-2.969,3.493a81.058,81.058,0,0,1-6.287,6.985,37.771,37.771,0,0,0-7.335,8.382,39.735,39.735,0,0,1-5.064,5.938,3.714,3.714,0,0,1-2.62,1.222c-3.493,0-2.969-4.715-3.667-6.985a13.294,13.294,0,0,1-.524-3.667c0-7.16,4.017-11,8.382-15.717,1.746-1.921,6.636-3.143,9.256-3.143H-115C-113.25-72.473-108.36-71.076-108.36-68.98Zm34.752,45.4a3.032,3.032,0,0,0-2.969-3.318c-2.969,0-6.287,1.746-9.954,1.746-1.048,0-4.191-.175-5.239-.7-.524-.175-.524-.7-.524-1.048,0-2.62,1.222-5.064,1.222-7.684v-1.572a19.7,19.7,0,0,1,.873-7.16,7.087,7.087,0,0,0,.7-3.318c0-2.27-2.1-10.3-2.969-12.574-1.222-2.794-1.048-6.112-2.1-8.906-.349-1.048-1.572-2.794-1.572-3.842,0-.349,3.318-6.112,4.191-6.636,2.62-1.572,5.414-5.414,7.509-7.509,3.143-3.318,7.335-.175,8.033-3.842,0-.7.175-1.572.175-2.445,0-3.143-1.572-5.938-5.064-5.938-4.191,0-7.859,8.382-11.177,11-3.493,2.62-3.842,6.287-6.287,8.382-.873.7-2.62,2.62-3.667,2.62a2.425,2.425,0,0,1-1.746-.873c-2.27-1.921-6.461-2.62-9.43-2.62-3.667,0-9.954,1.746-13.447,3.318-4.89,2.1-6.287,5.414-9.256,6.811-2.62,1.4-2.445,3.318-3.493,5.763-2.1,4.191-3.842,6.811-3.842,11.7a35.819,35.819,0,0,0,1.746,10.653c.7,1.921,1.746,5.064,1.746,6.985,0,2.62-5.763,8.208-7.335,10.129-2.1,2.27-5.414,4.017-7.16,6.636a2.891,2.891,0,0,1-2.27,1.746c-2.969,0-4.191-4.191-7.335-4.191-1.222,0-2.27.349-3.493.349-3.493,0-4.89,1.921-8.033,2.62s-5.763,5.064-8.732,6.985c-3.667,2.27-3.493,4.89-5.064,5.938-1.4,1.048-1.572,2.794-2.62,4.191-1.222,1.572-2.27,3.143-2.27,5.064,0,4.191,3.842,5.588,7.335,5.588,5.414,0,6.461-2.794,9.6-3.318,1.921-.349,3.667-1.572,5.588-2.27,2.1-.7,2.969-3.842,4.54-3.842,3.318,0,5.763-6.811,10.3-6.811,2.1,0,7.684,4.191,9.081,5.588,2.27,2.1,4.89,1.921,7.335,3.667a11.14,11.14,0,0,0,6.287,1.921c1.746,0,3.493-.7,5.414-.7h2.1a5.98,5.98,0,0,0,3.143-.7,11.815,11.815,0,0,1,6.287-1.746c2.794,0,6.636-4.54,9.43-5.763,2.62-1.222,4.366-4.366,7.16-5.938,2.62-1.572,3.667-4.715,5.064-7.335,1.222-2.27,2.27-2.794,4.89-2.794s4.89-.873,7.335-.873c2.27,0,3.842-.7,5.938-.873.175,0,1.222-.175,1.572-.175,1.222,0,1.746,0,2.1-.7A2.705,2.705,0,0,0-73.608-23.576ZM-5.5-9.954a1.688,1.688,0,0,0-1.572-1.572c-.873,0-8.382,5.239-13.272,5.239-1.572,0-3.318-.524-4.017-2.1a10.747,10.747,0,0,1-.524-3.143c0-2.1-.7-3.667-.7-5.763V-18.86c0-1.921-1.746-5.588-4.017-5.588-.349,0-5.064,1.746-6.112,2.1-3.318.7-2.445,1.921-4.715,3.667a7.719,7.719,0,0,1-4.191,1.921c-.524,0-.873-.175-.873-.873,0-1.4-2.794-2.1-4.017-2.445-1.222,0-6.985,4.191-8.208,4.89-2.969,1.4-6.636,2.794-9.081,5.064-1.572,1.572-7.16,2.794-7.16,5.064a1.426,1.426,0,0,0,1.572,1.4c1.222,0,3.842-1.921,5.588-2.27,1.746-.524,4.366-2.969,5.938-2.969,2.1,0,4.017-3.493,6.636-3.493.7,0,1.4.349,1.4,1.048A5.662,5.662,0,0,1-55.8-6.287c-2.27,1.4-3.143,3.667-5.239,5.239-1.572,1.222-6.287,4.89-6.287,6.985,0,1.572,1.746,2.1,2.969,2.1,4.715,0,4.89-2.62,6.985-4.191,4.191-3.143,4.017-6.811,9.954-10.3,1.921-1.048,2.969-2.969,5.064-3.667a11.134,11.134,0,0,0,6.112-4.017c.7-1.4,2.1-4.191,3.842-4.191a2.033,2.033,0,0,1,1.921,2.27c0,1.4-1.048,2.445-1.048,3.842,0,.873-.175,1.572-.175,2.27a1.934,1.934,0,0,0,.873,1.746c2.27,1.572,1.222,2.62,4.366,4.366A13.417,13.417,0,0,0-20.17-2.27a12.1,12.1,0,0,0,3.493-.524c2.27-.524,7.859-3.667,9.954-5.239A2.519,2.519,0,0,0-5.5-9.954ZM38.158-7.16c0-.873-1.048-1.048-1.746-1.048A6.087,6.087,0,0,0,33.442-7.16c-1.222.873-2.445.524-4.54,2.1-2.794,2.1-7.16,1.4-9.081,2.969a2.682,2.682,0,0,1-2.27.873c-.7,0-1.4-.175-1.921-.175-1.222,0-2.27.524-3.493.524A4.185,4.185,0,0,1,8.12-4.89,6.809,6.809,0,0,1,11.788-10.3c1.921-.873,2.27-3.842,3.842-4.89a1.7,1.7,0,0,0,.7-1.572c0-2.1-1.4-2.27-2.969-2.27-1.746,0-3.842.349-4.89,1.746-1.4,1.746-2.62,3.667-4.54,4.89-1.048.7-4.54,4.017-4.54,5.239C-.611-6.112.437-5.239.96-4.366c.873,1.222.873,3.143,1.222,4.715.873,2.62,6.461,4.715,9.081,4.715,2.27,0,4.715-1.4,6.811-1.921,2.794-.7,6.287-1.048,8.382-2.969a28.523,28.523,0,0,1,5.938-3.318C33.966-3.842,38.158-5.064,38.158-7.16Zm16.59-45.754c0-1.222-1.222-2.27-1.4-3.667-.349-2.1,0-4.89-1.572-6.636-.7-.7-1.746-1.921-2.62-1.921-1.4,0-4.89,5.064-4.89,6.985,0,4.191,2.62,8.033,6.985,8.033C52.652-50.12,54.748-51.517,54.748-52.914ZM122.506-6.985c0-1.048-1.222-1.4-1.921-1.4-2.1,0-9.081,4.017-12.224,5.064-2.969,1.048-5.588,3.143-8.906,3.143-4.715,0-5.763-1.4-6.985-5.938a10.307,10.307,0,0,1-.349-2.445c0-5.064,5.763-4.017,5.763-7.509,0-1.921-2.27-5.414-4.366-5.414-3.667,0-8.557,5.064-10.653,7.684-1.4,1.572-11.7,8.732-13.1,8.732-.7,0-.873-.349-.873-1.048,0-2.62,2.62-4.54,2.62-6.287,0-2.1-4.366-5.414-6.461-5.414a5.887,5.887,0,0,0-2.969.873c-3.318,1.921-6.287,4.191-9.6,5.938C49.683-9.6,46.889-8.557,44.27-7.16c-.873.349-4.715,2.27-4.715,3.493,0,.7,1.921.873,2.445.873a8.539,8.539,0,0,0,4.017-1.4c3.143-1.921,6.811-1.921,10.3-3.493a3.7,3.7,0,0,1,1.222-.524c.873,0,3.143,2.62,3.143,3.318,0,2.1-3.667,3.667-3.667,5.938,0,2.1,2.27,3.143,4.191,3.143,8.732,0,9.6-5.239,15.542-7.684,2.1-.873,6.811-4.54,8.382-4.54s.873,5.414,1.921,6.985C88.976,2.1,92.12,5.239,96.136,5.239a18.614,18.614,0,0,0,5.239-1.048c2.1-.7,3.493-2.62,5.588-2.794,2.794-.175,3.493-1.222,5.588-2.445a42.194,42.194,0,0,1,6.985-3.318C120.585-4.89,122.506-5.763,122.506-6.985Zm79.808-.349c0-.7-.349-.873-1.048-.873-2.969,0-6.985,3.143-10.3,4.017-1.921.524-3.493,2.1-5.588,2.27-2.62.349-5.588,1.222-8.208,1.222-2.445,0-2.969-1.222-3.318-3.318-.873-3.667-3.842-5.588-3.842-7.509a1.834,1.834,0,0,1,.873-1.572c1.222-1.222,1.746-2.969,2.794-4.366,1.572-1.572,4.366-4.715,4.366-6.985,0-.7-.524-2.27-1.4-2.27a6.653,6.653,0,0,0-1.746.524c-1.4.7-3.842,4.54-5.414,5.938-1.746,1.4-2.794,3.318-4.191,5.064-1.222,1.572-4.366,2.62-4.366,4.715a1.852,1.852,0,0,0,2.1,2.1h1.572c1.746,0,3.318,1.921,3.318,3.667,0,.7-.175,1.222-.175,1.921,0,2.969,2.62,7.684,5.938,7.684h4.54c3.143,0,5.414-2.62,6.811-2.62,2.27,0,3.318-1.921,5.414-2.27,2.445-.349,4.54-2.794,6.985-3.493,1.048-.349,4.54-1.746,4.715-2.969A1.574,1.574,0,0,0,202.314-7.335Zm4.191-70.2a1.761,1.761,0,0,0-1.572-1.921c-.873,0-2.794,1.222-3.667,1.572-3.143,1.4-4.89,4.54-6.811,7.16-1.921,2.969-6.112,4.191-8.208,7.16-1.572,2.445-4.54,3.318-6.112,5.588-2.1,3.143-5.414,5.239-7.859,8.382-2.62,3.143-6.461,5.239-8.906,8.732-1.921,2.969-3.667,6.112-6.811,8.033s-5.064,7.16-7.335,8.557c-2.1,1.4-5.239,7.859-9.43,10.653-2.27,1.572-4.54,3.318-6.985,4.89-1.048.524-8.557,4.017-8.557,4.715v.7c0,.7,1.4,1.222,2.445,1.222,1.4,0,5.763-2.62,7.16-3.318a43.067,43.067,0,0,0,11.526-8.557c2.27-2.27,3.667-5.064,6.287-6.985,2.62-1.746,2.969-5.064,6.287-7.16,1.746-1.048,4.191-4.366,5.064-5.763a5.166,5.166,0,0,1,.524-.7s.524,0,.524.175a.642.642,0,0,1,.175.524,1.485,1.485,0,0,1-.524.873,34.821,34.821,0,0,1-3.842,4.54c-2.969,2.445-4.017,6.287-6.636,9.081-2.969,3.143-5.239,6.811-8.382,9.6C141.541-7.16,139.969-3.143,137,0c-1.048,1.048-2.62,2.62-2.62,4.191,0,1.222,1.572,3.667,2.969,3.667,2.27,0,4.89-5.064,5.938-6.811A44.747,44.747,0,0,1,151.32-9.78c2.445-2.445,4.017-5.588,6.461-7.859,2.445-2.1,3.318-4.54,4.715-7.16,1.572-3.143,5.414-4.715,6.636-8.033,2.1-4.89,18.337-20.781,22.528-25.147a55.441,55.441,0,0,0,5.239-5.938c1.222-1.746,2.27-3.842,3.842-5.239C202.663-70.727,206.5-75.093,206.5-77.538Z" transform="translate(194.455 98.319)" fill="#fff"/>
</svg>
