<svg xmlns="http://www.w3.org/2000/svg" width="98.05" height="236.217" viewBox="0 0 98.05 236.217">
  <g id="Group_241" data-name="Group 241" transform="translate(-1273.96 -13976)">
    <g id="Group_240" data-name="Group 240">
      <g id="Group_238" data-name="Group 238">
        <g id="Group_237" data-name="Group 237">
          <path id="Path_74" data-name="Path 74" d="M1331.98,14012.762a5.41,5.41,0,0,1-4.06-1.539,7.224,7.224,0,0,1-1.94-3.541.637.637,0,0,1,.36-.279.416.416,0,0,1,.4.039,4.927,4.927,0,0,0,2.12,2.281,6.825,6.825,0,0,0,3.16.68,4.211,4.211,0,0,0,2.04-.521,4.307,4.307,0,0,0,1.58-1.479,4.042,4.042,0,0,0,.62-2.24,4.867,4.867,0,0,0-1.48-3.74,5.408,5.408,0,0,0-3.84-1.381,14.431,14.431,0,0,0-5.04.92,28.685,28.685,0,0,0-4.64,2.2,25.57,25.57,0,0,0,.54,3.68,10.255,10.255,0,0,1,.34,1.84,3.984,3.984,0,0,1-.34,1.561,2.581,2.581,0,0,1-1.5,1.279,1.622,1.622,0,0,1-1.5.061,1.715,1.715,0,0,1-.82-1.381,2.007,2.007,0,0,0-.94-1.18,7.592,7.592,0,0,0-2.1-1.02c-.267.268-.514.506-.74.721s-.407.387-.54.52a2.306,2.306,0,0,1-1.46.619,1.8,1.8,0,0,1-1.54-.74,3.822,3.822,0,0,0-.98-.8.939.939,0,0,1-.46-.92q0-1.321,2.2-1.32a11.057,11.057,0,0,1,1.56.119q1.16-.68,2.8-1.76t3.56-2.2v-.679q0-1.762.06-3.442t.1-3.24q-1.041.161-2.08.281a17.131,17.131,0,0,1-1.96.119,4.3,4.3,0,0,1-2.32-.619,4.167,4.167,0,0,1-1.52-1.6,4.01,4.01,0,0,1-.48-2.062.494.494,0,0,1,.8-.121,2.38,2.38,0,0,0,1.26,1.861,4.756,4.756,0,0,0,2.38.619,10.236,10.236,0,0,0,1.86-.2,21.7,21.7,0,0,0,2.14-.52q.08-1.641.2-2.92t.2-2.121q.12-1.16-.4-1.4a1.048,1.048,0,0,0-.6-.18,3.707,3.707,0,0,0-.68.02q-.441-.439,0-.8a5.575,5.575,0,0,1,1.52-.221,4.766,4.766,0,0,1,1.52.18,2.392,2.392,0,0,1,1.04.521,2.12,2.12,0,0,1,.66.879.851.851,0,0,1-.22.92,4.357,4.357,0,0,0-.7,1.641,22,22,0,0,0-.5,2.8,14.678,14.678,0,0,0,2.24-1.08q.439-.237,1.8.641a1.138,1.138,0,0,1,.54.92.94.94,0,0,1-.66.881,22.635,22.635,0,0,1-4.16,1.2q-.081,1.521-.12,3.2t-.04,3.479a36.687,36.687,0,0,1,5.06-2.26,15.2,15.2,0,0,1,5.14-.939,9.124,9.124,0,0,1,4.3.939,6.79,6.79,0,0,1,2.74,2.561,7.044,7.044,0,0,1,.96,3.66,6,6,0,0,1-.96,3.3,6.968,6.968,0,0,1-2.64,2.4A8.009,8.009,0,0,1,1331.98,14012.762Zm-13.44-3.52q.96.721.96-.52,0-.4-.02-1.3t-.06-2.02q-.96.639-1.82,1.32t-1.54,1.279A11.946,11.946,0,0,1,1318.54,14009.242Zm18.68-14.24a.556.556,0,0,1-.38-.24.5.5,0,0,1-.1-.4,11.268,11.268,0,0,1,1-.859,10.2,10.2,0,0,1,1.2-.82,2.74,2.74,0,0,0-1.06-.92,3.71,3.71,0,0,0-1.78-.4,7.983,7.983,0,0,0-3.48.66,12.431,12.431,0,0,0-2.52,1.621c-.427-.055-.614-.254-.56-.6a13.28,13.28,0,0,1,1.46-1.478,10.2,10.2,0,0,1,2.44-1.581,7.63,7.63,0,0,1,3.34-.7,6.633,6.633,0,0,1,4.12,1.16,3.341,3.341,0,0,1,1.52,2.68,1.359,1.359,0,0,1-.56,1.24,1.493,1.493,0,0,1-1.36.08,2.814,2.814,0,0,0-1.9-.119A6.333,6.333,0,0,0,1337.22,13995Z" fill="#505050"/>
          <path id="Path_75" data-name="Path 75" d="M1307.62,14063.365q-.6-.12-.4-.719a18.744,18.744,0,0,0,6.26-6.5,25,25,0,0,0,2.94-10.221h-6.56a13.535,13.535,0,0,0-2.12.2l-.36-1.719a14.213,14.213,0,0,0,2.48.32h6.68q.12-1.521.12-3.16v-5.32h-2.52a44.581,44.581,0,0,1-2.92,4.279,35.243,35.243,0,0,1-2.84,3.281.569.569,0,0,1-.64-.521,27.806,27.806,0,0,0,1.9-2.879q.979-1.682,1.92-3.6a41.2,41.2,0,0,0,1.66-3.881,22.293,22.293,0,0,0,1.04-3.76,5.233,5.233,0,0,0,.08-.84,3.82,3.82,0,0,0-.04-.6c0-.32.026-.508.08-.561.053-.105.186-.133.4-.08q.4.161,1.14.48l1.48.639c.493.215.886.387,1.18.521a.4.4,0,0,1,.24.52.405.405,0,0,1-.52.32.993.993,0,0,0-1.2.719,41.124,41.124,0,0,1-2.28,4.76h5.96a.6.6,0,0,0,.44-.158q.2-.24.76-.881c.373-.426.626-.707.76-.84a.466.466,0,0,1,.72-.041,9.731,9.731,0,0,1,1.2.98q.759.7,1.12,1.1a.706.706,0,0,1,.26.7.491.491,0,0,1-.54.34h-6.32v7.061a12.243,12.243,0,0,1-.08,1.42h2.88a.6.6,0,0,0,.44-.16q.2-.24.76-.881t.76-.879a.482.482,0,0,1,.72,0,8.817,8.817,0,0,1,1.18.979q.74.7,1.14,1.061a.875.875,0,0,1,.24.74c-.054.228-.227.34-.52.34h-7.68a28.807,28.807,0,0,1-1.24,6.08,23.263,23.263,0,0,1,3,1.221,19.53,19.53,0,0,1,2.76,1.619,6.464,6.464,0,0,1,1.84,1.881,2.707,2.707,0,0,1,.42,2.219,2.011,2.011,0,0,1-.98,1.381,1.326,1.326,0,0,1-.78.08c-.254-.053-.527-.361-.82-.92a17.505,17.505,0,0,0-2.48-3.641,20.69,20.69,0,0,0-3.28-2.92,17.509,17.509,0,0,1-3.88,6.141A23.559,23.559,0,0,1,1307.62,14063.365Zm21.52-.92a1.008,1.008,0,0,1-.54-.16.6.6,0,0,1-.26-.559q0-.2.02-1.561t.08-3.561q.06-2.2.1-4.98t.06-5.859q.02-3.079.02-6.2,0-2-.04-3.08t-.12-1.66a2.712,2.712,0,0,0-.28-.939.293.293,0,0,1,.08-.4.316.316,0,0,1,.44-.041q.44.2,1.38.74t1.5.859h5.84a.6.6,0,0,0,.44-.158q.2-.281.6-.74t.56-.66q.32-.4.84-.041c.16.135.4.34.72.621s.646.553.98.82a5.185,5.185,0,0,1,.7.639q.519.48-.12.8c-.187.08-.38.174-.58.279s-.38.2-.54.281a.592.592,0,0,0-.24.2,1.074,1.074,0,0,0-.08.52v4.041q0,3.36.06,6.5t.12,5.68q.06,2.54.12,4.119c.04,1.055.06,1.646.06,1.781q0,.439-.8.719a4.239,4.239,0,0,1-1.36.281q-.761,0-.76-.6v-1.559h-6.96v3q0,.319-.74.6A3.777,3.777,0,0,1,1329.14,14062.445Zm2.04-5.08h6.96v-21.119h-6.96Z" fill="#505050"/>
          <path id="Path_76" data-name="Path 76" d="M1322.1,14108.1a.664.664,0,0,1-.3-.52.635.635,0,0,1,.18-.52,21.7,21.7,0,0,0,4.18-.881,15.286,15.286,0,0,0,3.62-1.66,8.995,8.995,0,0,0,2.54-2.34,4.987,4.987,0,0,0,.94-2.961,5.989,5.989,0,0,0-.58-2.639,4.875,4.875,0,0,0-1.66-1.939,4.343,4.343,0,0,0-2.52-.74,5.289,5.289,0,0,0-3,.879,9.41,9.41,0,0,0-2.2,2,14.845,14.845,0,0,0-1.32,1.92,6.756,6.756,0,0,1-1.18,1.441,2.358,2.358,0,0,1-1.98.68,2.994,2.994,0,0,1-2.14-1.061,5.274,5.274,0,0,1-.78-3.3,14.928,14.928,0,0,1,.18-2.2q.18-1.2.38-2.52.32-1.881.58-3.941a18.808,18.808,0,0,0,.1-3.939,3.041,3.041,0,0,1,.42-2.08,3.272,3.272,0,0,1,1.46-1.139,7.851,7.851,0,0,1,1.94-.521c.68-.092,1.286-.166,1.82-.219a3.237,3.237,0,0,0,2.2-.82,1.623,1.623,0,0,0,.3-1.721,4.562,4.562,0,0,0-1.78-2.061.524.524,0,0,1,.48-.68,10.206,10.206,0,0,1,3.18,1.721,6.051,6.051,0,0,1,2.06,2.6,2.332,2.332,0,0,1,.1,1.561,1.99,1.99,0,0,1-1.02,1.24,2.054,2.054,0,0,1-1.3.3,5.489,5.489,0,0,1-1.18-.379q-.52-.2-1.18-.42a5.174,5.174,0,0,0-1.62-.221,6.092,6.092,0,0,0-3.1.621,1.859,1.859,0,0,0-.74,2.139,14.467,14.467,0,0,1,.08,4.02q-.24,2.063-.52,3.82-.16.923-.28,1.74a10.213,10.213,0,0,0-.12,1.461q0,1.679.78,1.979a2.16,2.16,0,0,0,1.98-.58q.72-.519,1.82-1.439a14.834,14.834,0,0,1,2.52-1.68,6.391,6.391,0,0,1,3.06-.76,8.918,8.918,0,0,1,3.78.84,7.712,7.712,0,0,1,2.98,2.381,5.907,5.907,0,0,1,1.16,3.658,6.613,6.613,0,0,1-1.02,3.74,8.174,8.174,0,0,1-2.66,2.521,15.247,15.247,0,0,1-3.56,1.539,24.828,24.828,0,0,1-3.8.8Q1323.5,14108.061,1322.1,14108.1Z" fill="#505050"/>
          <path id="Path_77" data-name="Path 77" d="M1326.74,14152.119a24.279,24.279,0,0,1-3.2-.2,6.3,6.3,0,0,1-2.7-.979,5.156,5.156,0,0,1-1.86-2.421,12.1,12.1,0,0,1-.68-4.52v-7.24a6.481,6.481,0,0,0-.7.2q-.34.12-.7.24a9.22,9.22,0,0,0-1.64.779,12.74,12.74,0,0,1-1.54.8,4.492,4.492,0,0,1-1.82.342,2.625,2.625,0,0,1-1.88-.721,4.608,4.608,0,0,1-1.14-1.7,5.714,5.714,0,0,1-.42-1.74.515.515,0,0,1,.8-.16,1.784,1.784,0,0,0,.94,1.02,3.982,3.982,0,0,0,1.54.26,10.808,10.808,0,0,0,1.64-.3q1.32-.3,2.88-.658.439-.12.96-.24l1.04-.24q-.04-2.279-.12-3.641a15.28,15.28,0,0,0-.28-2.279,1.815,1.815,0,0,0-.76-1.4,2.355,2.355,0,0,0-1.08-.4.6.6,0,0,1-.14-.439.47.47,0,0,1,.18-.359,8.082,8.082,0,0,1,1.52-.021,6.636,6.636,0,0,1,1.48.26,3.943,3.943,0,0,1,1.12.541,2.95,2.95,0,0,1,.86.859.823.823,0,0,1-.02.961,4.444,4.444,0,0,0-.52,2.119q-.081,1.441-.08,3.361,2.119-.442,4.56-.842t5.12-.719q.039-1.562.04-3.18v-3.1a2.008,2.008,0,0,0-.18-.959,1.167,1.167,0,0,0-.5-.48,3.241,3.241,0,0,0-1.08-.359.523.523,0,0,1,.04-.84,6.205,6.205,0,0,1,2.88.279,4.177,4.177,0,0,1,1.44.76.77.77,0,0,1,.12,1.2,4.392,4.392,0,0,0-.32.74,3.343,3.343,0,0,0-.16,1.1v4.6q.84-.079,1.68-.16c.56-.053,1.133-.094,1.72-.119q1-.082.28-.842a5.742,5.742,0,0,0-.62-.6q-.46-.4-.9-.84t-.64-.6c0-.425.186-.641.56-.641q.4.24,1.32.841t1.94,1.14a9.012,9.012,0,0,0,1.74.74,2.8,2.8,0,0,1,1.06.439,3.145,3.145,0,0,1,.86,1q.56.882.18,1.34t-1.54.341q-1.961-.242-3.9-.3t-3.82.02a33.067,33.067,0,0,1-.6,5.061,8.527,8.527,0,0,1-1.72,3.859,3.2,3.2,0,0,1-1.02.86,2.815,2.815,0,0,1-1.38.339,2.212,2.212,0,0,1-1.38-.359,1.118,1.118,0,0,1-.46-.92,4.285,4.285,0,0,0-.26-1.3q-.261-.782-.62-1.6c-.24-.545-.467-1.039-.68-1.479s-.36-.754-.44-.941a.492.492,0,0,1,.3-.359.577.577,0,0,1,.42,0q.32.521.96,1.539a8.1,8.1,0,0,0,1.28,1.621,1.5,1.5,0,0,0,.8.439,1.335,1.335,0,0,0,.92-.359,4.547,4.547,0,0,0,1.08-2.381,29.216,29.216,0,0,0,.52-3.859q-2.6.24-5,.7t-4.6,1.061v7.641a8.177,8.177,0,0,0,.66,3.72,3.183,3.183,0,0,0,2.1,1.62,14.7,14.7,0,0,0,3.68.38,21.6,21.6,0,0,0,3.52-.319,28.422,28.422,0,0,0,3.28-.721,1.96,1.96,0,0,1,.86-.1,2.132,2.132,0,0,1,.82.5q1.039.8,1.04,1.52t-1.16.959a29.548,29.548,0,0,1-3.82.621A45.791,45.791,0,0,1,1326.74,14152.119Z" fill="#505050"/>
        </g>
      </g>
      <g id="Group_239" data-name="Group 239">
        <line id="Line_39" data-name="Line 39" y2="187" transform="translate(1291.5 13976)" fill="none" stroke="#505050" stroke-miterlimit="10" stroke-width="1"/>
        <line id="Line_40" data-name="Line 40" y2="187" transform="translate(1359.5 13976)" fill="none" stroke="#505050" stroke-miterlimit="10" stroke-width="1"/>
      </g>
    </g>
    <path id="Path_6819" data-name="Path 6819" d="M-17.25-20c0,.8-1.9,4.2-2.6,4.2-.15,0-.7-.5-.85-.65-.8-.6-2.45-1.5-2.45-2.6,0-1.3,2.35-2.55,3.45-2.55C-18.8-21.6-17.25-21.1-17.25-20ZM30-21.6a4.86,4.86,0,0,0-2-3.45,10.032,10.032,0,0,0-6.5-2.2c-2.25,0-8.4.1-10.3.9-1.75.75-5.3,1.8-6.65,2.8-1.45,1-3.1,1.75-4.45,2.8A28.718,28.718,0,0,1-3.2-18.6c-.85.45-1.15,1.4-1.9,1.9-1.05.7-1.9,1.65-2.95,2.35a5.514,5.514,0,0,0-1,1.15,20.588,20.588,0,0,1-2.05,1.6c-.35.2-1.05.8-1.5.8-.8-.1-1.1-1-1.75-1.4-.5-.25-3.55-2.45-3.55-2.95,0-.15.2-.3.3-.4.6-.5.7-1.2,1.2-1.8a5.824,5.824,0,0,0,1.1-3.5l-.05-.45c0-1.15-2.15-1.8-3-1.8H-19.4c-2.1,0-3.7.15-5.15,2-.55.65-.4,1.5-.65,2.25a.3.3,0,0,0-.05.2c0,1.45,3.7,3.95,3.7,4.75,0,.45-.65.85-.95,1.05-.75.6-1.05,1.65-2.3,2.4-1.3.8-2,2.1-3.55,2.95S-31.9-4.6-33-4.15a23.511,23.511,0,0,0-4.25,2.7A13.192,13.192,0,0,1-44.1.7c-.8,0-2-.5-2-1.45,0-.35.55-.8.55-1.85,0-.85-.5-2.35-1.55-2.35-1.1,0-1.85,2.05-1.85,2.95,0,2.2.5,2.8,2.3,3.85a2.068,2.068,0,0,0,.95.25c.6,0,1.2-.15,1.8-.15.3,0,.55.05.8.05,1.1,0,2.1-.75,2.9-.75,1.1,0,3.3-1.4,4.25-2.05a26.756,26.756,0,0,1,3.5-2.05c1.25-.65,2.1-1.9,3.4-2.55a26.227,26.227,0,0,0,3.9-3.15l2.45-1.95c.65-.55,2.25-2.4,2.95-2.5a.184.184,0,0,1,.15-.05c.5,0,1.4.85,1.9,1.1.8.4,1.35,1.25,2.15,1.75.5.35,1.3.95,1.3,1.7a.882.882,0,0,1-.4.75c-.9.85-1.1,2.1-2,3-1,.95-1.1,2.15-2.4,3.05S-19.95-.55-20.7.5a1.646,1.646,0,0,0-.3.95A1.63,1.63,0,0,0-19.6,3.1c1.05,0,3.1-2.05,3.85-2.75,1.7-1.5,2.05-2.6,3.15-4.35a5.433,5.433,0,0,0,.75-3.05c0-1.95.3-1.85,1.8-3.15.95-.8,2.35-2.8,3.2-3.25,1.1-.55,1.95-1.8,2.9-2.6A34.757,34.757,0,0,0-.9-18.35,21.358,21.358,0,0,1,3.8-21.3c1.6-.8,3.1-1.75,4.7-2.6,2-1,4.2-1,6.25-1.8a7.359,7.359,0,0,1,2.55-.4c1.45,0,2.85.3,4.25.3.55,0,1.1-.2,1.65-.2a7.863,7.863,0,0,1,3.1,1.2,3.277,3.277,0,0,1,1.95,2.6c0,1.75-2.45,3.85-3.8,4.65A30.676,30.676,0,0,1,20.85-15c-.75.2-1.55.95-2.7,1.25-.5.15-.95.35-.95.95,0,.4.3,1,.75,1,.85,0,2.7-2.05,4.15-2.25,1.5-.25,2.45-1.45,3.75-2.15C27.5-17.05,30-19.7,30-21.6ZM.6-5.25c0,.3-.85.8-1.1,1.05s-.65.25-.95.45c-.1.05-.25.2-.35.2s-.1-.05-.1-.1c0-.2.45-.6.6-.75A2.669,2.669,0,0,1,.4-5.35C.5-5.35.6-5.35.6-5.25ZM7.3-2a.408.408,0,0,0-.45-.4C6.05-2.4,4-.95,2.95-.85S1.05.15-.5.15c-.9,0-2.15-.8-2.15-1.75,0-.55,1.9-1,2.3-1.4C.75-4,2.3-3.95,2.3-6.15,2.3-6.9,1.85-7,1.25-7H.8c-1,0-1.9.9-2.75,1.4a5.191,5.191,0,0,0-1.9,1.85c-.7,1-.9,1.45-1.95,2-.15.15-.4.3-.4.55a.454.454,0,0,0,.5.4C-5.25-.8-5.15.35-3.65.8a4.886,4.886,0,0,1,1.5.55,2.21,2.21,0,0,0,1.1.25A17.03,17.03,0,0,0,4.45-.25a9.171,9.171,0,0,1,1.5-.9C6.3-1.25,7.3-1.55,7.3-2Zm28.1-.05c0-.2-.25-.3-.4-.3-.6,0-1.45.8-2.45.8-.9,0-2.25-.3-2.45-1.3-.15-1.05,0-.75-.8-1.5a.617.617,0,0,0-.4-.2c-.7,0-1.3,1.3-1.9,1.6-.65.3-.7,1.1-1.55,1.6C25-1.1,24.65-.1,24.15-.1c-.45,0-.7-.65-.7-1a.634.634,0,0,1,.05-.3c.45-.75.25-1.35.5-1.75a.723.723,0,0,0,.1-.35c0-.35-.75-1.35-1.1-1.35-.45,0-.8.7-1.05,1-.6.75-2.1,1.35-2.85,2.05A6.336,6.336,0,0,1,17-.55c-.7.25-1.2,1.1-2.1,1.1-.2,0-.45-.1-.45-.35a1.3,1.3,0,0,1,.45-.8c.35-.4.25-.85.8-1.25A8.061,8.061,0,0,0,16.85-3.5c.3-.4.4-.95.75-1.3.4-.35.6-.85,1.05-1.2.4-.3.45-.9.85-1.25.2-.2.65-.6.65-.9L20.1-8.3a1.888,1.888,0,0,0-1.15-.4.6.6,0,0,0-.5.15c-.55.4-.95.35-1.4.95a2.968,2.968,0,0,1-1.3,1.05c-.65.3-1,1.05-1.65,1.35-.7.3-1.2,1-1.9,1.3-.6.25-.9.95-1.5,1.2-.65.25-1.25.6-1.85.9-.2.1-.5.25-.5.45,0,.3.45.45.7.45.6,0,2.75-1.5,3.4-1.85s.8-.9,1.65-1.2a13.465,13.465,0,0,0,1.35-1,.26.26,0,0,1,.2-.1.184.184,0,0,1,.05.15,1.181,1.181,0,0,1-.3.45l-.8.9c-.7.8-1.35,2.4-2.1,3.25a1.421,1.421,0,0,0-.45.95C12.05,1.4,13,2,13.7,2a13.565,13.565,0,0,0,2.05-.45c1.35-.2,3.45-2.3,4.75-2.3.6,0,.5.9.6,1.3.15.95,1.1.65,1.75.9a.741.741,0,0,0,.35.05c2,0,3-3.4,4.65-3.4.15,0,.3.05.4.05.4,0,.65-.25.95-.25.55,0,.65.95,1.2,1.2a3.907,3.907,0,0,0,1.85.3h.6C33.35-.6,35.4-1.5,35.4-2.05ZM40.55.75a.587.587,0,0,1-.5.45c-.15,0-.35-.15-.35-.3,0-.2.4-.35.55-.35S40.55.6,40.55.75ZM49.1-7.2c0-.7-1-.85-1.5-.85a2.578,2.578,0,0,0-2.05.85c-.45.6-.75.45-1.2,1.35-.5,1.15-4.95,2.45-6.2,3.5-.4.3-1.85.75-1.85,1.25,0,.3.35.35.55.35.55,0,2.6-1.3,3.55-1.4.75-.15,1.9-1.35,2.35-1.35.65,0,1.05-.55,1.35-.55s.65.55.65.85c0,.6-.4,2.8-1.25,2.8-.45,0-.85.05-1.3.05-.5,0-.4-.2-.75-.2-.25,0-.55.05-.8.05-.2,0-.35-.05-.5-.05-.55,0-2.1,1.2-2.1,1.75,0,.6.9,1.25,1.45,1.25s1-.35,1.6-.35c.15,0,.4.05.65.05a1.632,1.632,0,0,0,.6-.1,2,2,0,0,1,1.1-.5c.5-.1,1.05-.65,1.6-.85.45-.2.65-.85.95-1.25a3.333,3.333,0,0,0,.6-1.95c0-.5-.25-.9-.25-1.35,0-1.45,1.5-1.2,1.7-1.65C48.25-6.05,49.1-6.75,49.1-7.2Z" transform="translate(1322.91 14209.117)" fill="#505050"/>
  </g>
</svg>
