<svg xmlns="http://www.w3.org/2000/svg" width="171.718" height="239.725" viewBox="0 0 171.718 239.725">
  <path id="terrain" d="M4342.937,621.683h2.833c1.063,1.079.062,1.423,0,2.833,1.4,1.058,1.992,2.921,4.535,2.834-.923,2.812,1.971,1.806,1.7,3.967,1.443-.859,2.6-1.6,4.534-.567-.929,1.526.771,2.906-.567,4.533,1.434,1.4,2.459,3.208,3.967,4.534-.843,4.155-.756,7.786,1.7,10.2v1.134c-1.211,1.27-1.821,5.291,0,6.234v2.833h-1.7c-.44,2.013-.076,2.06-.567,4.534-1.6-.469-1.468.8-2.833.566-.315,1.573.054,3.833-2.267,3.4-1.541.518,1.509,1.054.566,2.834-1.184-.24-1.5.389-2.266.567,1.509,2.211-1.277,4.154-2.834,5.1v5.1c-3.65.694-3.39,5.3-6.8,6.234.4,1.744.4,1.089,0,2.833-3.5,3.685-11.181,7.044-18.135,6.234-.987-.115-4.244-2.905-6.8-2.267-2.247,1.4-.422,4.762,1.134,5.667.373,2.074-1.227,2.174-1.134,3.967-2.586.319-3.529-1.005-6.233-.567,2.1,3,3.369,6.831,6.233,9.068-.238,1.273-3.007.016-3.4,1.134-.013,1.335.977,1.668.567,3.4-2.585.075-10.638.38-9.067,4.533-2.364-.382-3.088-.694-2.267,1.7-4.184-1.4-3.738-3.937-7.935-5.1-3.132.77-4.292,1.95-6.233-.566.473,4.061,3.131,5.935,3.966,9.634-3.33-.5-5.136.53-5.667,2.834-2.057-.022-4.474.318-5.1-1.134-1.9.518-.281,1.054-.567,2.834-1.807.486-1.752-.892-2.833-1.133-2.043,2.746,1.768,3.665,1.7,6.233.9,2-1.659,1.193-2.833,2.267-.254.232.277,1.507,0,1.7-1.6,1.117-4.182.877-5.667,2.267-2.105.216-1.481-2.3-3.967-1.7-2.335,2.984,1.416,5.162-2.267,6.8-.811,2.7,2.37,1.408,1.7,3.967-5.97-1.586-12.748-2.365-16.435-6.234-2.239,1.625-5.151.032-7.935,1.7-.42,2.791-2.271,4.153-2.267,7.367-.8.049-1.6.094-1.7-.566-1.164.158-1.131,1.513-1.7,2.267,2.627.394,1.193,4.852,5.1,3.966.181,3.131,6.772,5.131,7.934,9.635h-1.7c-1.774,8.672,6.167,11.251,10.2,15.869l-.283,1.038.85.662c.656,3.3,2.646,4.647,0,7.367.1-.482-.221-.535-.566-.567l.284-.85-.851.283c-.457-.392-1.552-.882-1.7,0-.551-.015-.44-.694-.567-1.133.824-.348-.058-.685,0,0-2.933-2.356-5.727-4.852-7.367-8.5-2.083-1.078-2.823,1.73-3.967-1.134-.769.175-.47,1.419-.566,2.267-1.839.328-2.637-.386-3.967-.567v.567l-.284-.284-.284-.283c-.643.108-.315.568,0,.567l-.283.851.851-.284c.684.826,2.477.544,1.7,2.833-3.676-.843-4.951.716-5.1,3.4-1.017.072-1.2-.694-2.267-.566-2.027.468.23,1.984-1.7,2.833,2.841.971,1.245,4.635.566,6.8-4.707-.69-6.677,9.59-5.667,13.036-3.121,2.606-5.465,4.765-5.1,9.634,2.415,1.112,2,3.568,2.267,5.667.129.816,1.691.2,1.7,1.133.636-4.465,4.407-5.8,9.068-6.233-.394,2.661.083,4.451,2.267,4.534V834.2c-4.927,2.064-7.314,6.665-10.768,10.2-1.744.421-1.089-1.556-2.834-1.133-1.46.136.779.975,0,2.266-8.146.543-9.213,8.166-14.167,11.9-4.59-1.363-7.641,1.141-9.635,3.967h-1.7c-.932-2.06-3.51-1.6-4.534-2.267-1.054-1.88,1.562-5.231,1.134-7.367-.047-.231-1.113-.749-1.134-.567.08-.672,1.534-.661,1.7-1.133.213-.6-1.151-.436-1.134-.567.333-2.474,2.175-4.968-1.133-6.233l-.284-.851-.85.284c.469-1.6-.8-1.469-.566-2.834,1.017.072,1.2-.694,2.266-.567-3.708-1.279-4.134-3.721-1.133-5.666-.243-.89-1.783-.485-1.133-2.267-.457.392-1.552.881-1.7,0-.265-1.21.809-1.079,1.7-1.133-1.639-1.2-1.229-4.439-2.834-5.668v-1.133c2.069-.989,1.816-7.566,6.234-3.967-1.058-3.7,3.97-1.319,3.4-4.533.18-1.5-3.174.53-2.267-1.7,1.9-1.351-.328-3.317,1.134-5.1,2.571-1.061.771,2.251,2.833,1.7,1.544-.521-.791-1.772,0-3.4,4.827.859,4.317-3.617,6.8-5.1,6.911-.457,8.291-6.446,11.9-10.2a2.283,2.283,0,0,1-.567-3.4c-3.34,1.44-3.908-4.559-2.266-6.8-1.28-6.592-7.056-13.155-7.935-20.4-.377-3.111.52-6.6,0-9.068,1.744.4,1.089.4,2.833,0a19.92,19.92,0,0,1,2.834,5.667c3.885-1.594,6.209-4.747,9.068-7.367.413,1.854,2.037,2.5,3.4,3.4-.1-1.229,2.011-.257,2.834-.567.684-1.725.283-2.28.566-5.1,3.385-.2,2.59-4.589,6.8-3.967.82-.88.756-2.644,1.7-3.4,1-.13,2.837.572,2.266-1.133-.113-2.634-.471-2.869-2.833-2.267a22.279,22.279,0,0,0,2.833-3.967c1.99-1.055,1.865.43,3.4,1.133.468-1.6-.8-1.469-.567-2.833,2.6,1.694,1.981-1.306,4.535-1.134.881,1.2,1.428,2.728,3.4,2.834,1.334-2.94,4.739-5.534,7.367-3.967.316-2.9,2.613-3.81,3.968-5.667l.849.284.284-.851a2.666,2.666,0,0,0,1.7.567c.687-1.776,2.9-4.754,4.534-2.267-.823.349.058.684,0,0,1.723-3.756,4.982-5.975,5.1-11.335-4.543-3.2-10.2-5.288-15.3-7.934-1.155.355-.158,2.863-2.267,2.267-2.076.186-3.149-.63-4.533-1.134.161-5.1-4.988-7.69-3.967-15.3.536-1.164,2.919-.48,2.833-2.266.114-3.7-3.05-4.129-3.966-6.8a52.709,52.709,0,0,0,1.133-7.934,28.812,28.812,0,0,0,6.234,3.966c1.65-1.6,5.817-.95,9.067-1.7,2.439-.562,7.672-2.019,7.367,2.267-.823.348.058.685,0,0,3.737.607,7.155,1.535,9.634,3.4.158,1.292-.136,2.13-1.133,2.267l-.85-.283.283.85c-.658-.093-1.008.125-1.133.566l.283.284.284.284.85.283.283-.85a8.957,8.957,0,0,1,5.1-1.7c-1.074,2.622.606,5.769,2.834,6.8-1.461.136.778.975,0,2.266l-.851-.283-.283.85c-2.382.116-2.38-2.154-4.534-2.267-.785.348-.085,2.182-1.134,2.267-1.1-1.164-2.672-1.861-3.966-2.833-1.387,1.336.846,1.053.566,2.833-1.055.542-1.894-1.7-2.266,0a5.431,5.431,0,0,1,5.1,5.1c2.391-1.382,3.056,1.163,6.233.567.158-.994-1.6-2.828,0-3.4l.283.85.851-.283c.857.841,2.487.913,3.967,1.133,1.445-2.229,4.927-1.607,6.8-2.834,2.456-1.608,2.931-4.711,5.667-5.666l.851.283.284-.85c.481.1.533-.221.566-.567h.567v.567h.566c.639.2,1.629,2.795,2.267,1.133-.664-.092-.478-1.033-.566-1.7h-1.7l.283-.85-.849.283h-.567l-.566-.283-.567.283c.1-.482-.221-.535-.567-.566-1.3-4.2,2.156-6.845,3.967-9.635,5.507.217,7.134-3.444,10.2-5.667.953-3.976-1.924-4.121-2.267-6.8,3.321,1.407,4.613-1.023,7.934-1.134,1.4-1.784,2.268-6.584,5.1-5.1-.508-3.072,2.78-3.813,4.534-6.234.269-.371.012-2.094.567-2.833.247-.328,1.513-.15,1.7-.567,1.572-3.5,2.365-8.308,3.967-11.9.143-.32,2.173-1.12,1.7-2.834-.068-1.633-2.417-.984-2.267-2.833C4339.962,624,4342.206,623.6,4342.937,621.683Z" transform="translate(-4189.921 -621.683)" fill="#fff" fill-rule="evenodd"/>
</svg>
